<svg width="18" height="22" viewBox="0 0 22 28" fill="none" xmlns="http://www.w3.org/2000/svg">
    <path
        d="M0.333313 6.99729C0.333313 6.20164 0.649384 5.43858 1.21199 4.87597C1.7746 4.31336 2.53766 3.99729 3.33331 3.99729H15.3333C16.129 3.99729 16.892 4.31336 17.4546 4.87597C18.0172 5.43858 18.3333 6.20164 18.3333 6.99729V26.3333C18.3332 26.5091 18.2868 26.6817 18.1988 26.8338C18.1107 26.9859 17.9841 27.1121 17.8318 27.1997C17.6794 27.2873 17.5066 27.3332 17.3309 27.3328C17.1551 27.3324 16.9826 27.2856 16.8306 27.1973L9.33331 22.824L1.83731 27.1973C1.68534 27.286 1.51266 27.333 1.33671 27.3336C1.16075 27.3342 0.987759 27.2883 0.835189 27.2007C0.682618 27.113 0.555874 26.9867 0.467755 26.8344C0.379636 26.6821 0.333261 26.5092 0.333313 26.3333V6.99729ZM15.3333 0.666626C17.013 0.666626 18.6239 1.33389 19.8117 2.52162C20.9994 3.70935 21.6666 5.32025 21.6666 6.99996V22.8306C21.6666 23.0958 21.5613 23.3502 21.3738 23.5377C21.1862 23.7253 20.9319 23.8306 20.6666 23.8306C20.4014 23.8306 20.1471 23.7253 19.9595 23.5377C19.772 23.3502 19.6666 23.0958 19.6666 22.8306V7.00129C19.6666 5.85202 19.2101 4.74982 18.3974 3.93716C17.5848 3.12451 16.4826 2.66796 15.3333 2.66796H3.84931C3.84931 2.66796 3.99998 1.92396 4.91198 1.22529C5.66665 0.666626 6.46931 0.666626 6.46931 0.666626H15.3333Z"
        fill="currentColor" />
</svg>