<svg width="24" height="24" viewBox="0 0 24 24" fill="none" xmlns="http://www.w3.org/2000/svg">
<path d="M8.29727 7.93094C8.69394 7.58444 9.16527 7.31727 9.6856 7.15977L9.97377 7.08394L10.1604 7.04894L10.3658 7.01977L10.5758 7.00227L10.7904 6.99644H19.5404C20.5087 6.99636 21.4404 7.36674 22.1443 8.03163C22.8483 8.69652 23.2712 9.60554 23.3263 10.5723L23.3321 10.7881V19.5381C23.3322 20.5066 22.9616 21.4384 22.2965 22.1424C21.6313 22.8463 20.722 23.2691 19.7551 23.3239L19.5404 23.3298H10.7904C9.82194 23.3298 8.89013 22.9593 8.18617 22.2941C7.4822 21.629 7.05943 20.7197 7.0046 19.7528L6.99877 19.5393V10.7893L7.0186 10.3938L7.09094 9.95394L7.15977 9.69377L7.2531 9.41844L7.3546 9.18277L7.45027 8.99377L7.55994 8.8036L7.73027 8.55044L7.83993 8.40694L7.99744 8.22494L8.12343 8.09427L8.29727 7.93094ZM15.8444 2.60277L15.9051 2.80927L16.7148 5.8286H10.7904C10.1392 5.8286 9.49434 5.95689 8.89269 6.20614C8.29105 6.4554 7.74439 6.82073 7.28395 7.28128C6.82351 7.74182 6.45831 8.28856 6.2092 8.89027C5.96009 9.49198 5.83195 10.1369 5.8321 10.7881V18.2944C5.07347 18.2495 4.34584 17.9777 3.74358 17.5142C3.14133 17.0507 2.69225 16.4169 2.4546 15.6951L2.39394 15.4898L0.129436 7.03727C-0.121394 6.10204 -0.00492254 5.10628 0.454968 4.25418C0.914858 3.40208 1.68332 2.75821 2.60277 2.4546L2.81044 2.39394L11.2618 0.129436C12.197 -0.121394 13.1928 -0.00492254 14.0449 0.454968C14.897 0.914858 15.5408 1.68332 15.8444 2.60277Z" fill="currentColor"/>
</svg>
