<svg width="25" height="23" viewBox="0 0 25 23" fill="none" xmlns="http://www.w3.org/2000/svg">
<path d="M0 4.375C0 3.21468 0.460936 2.10188 1.28141 1.28141C2.10188 0.460936 3.21468 0 4.375 0H20.125C21.2853 0 22.3981 0.460936 23.2186 1.28141C24.0391 2.10188 24.5 3.21468 24.5 4.375V13.125C24.5 13.6995 24.3868 14.2684 24.167 14.7992C23.9471 15.33 23.6248 15.8123 23.2186 16.2186C22.8123 16.6248 22.33 16.9471 21.7992 17.167C21.2684 17.3868 20.6995 17.5 20.125 17.5H13.454L8.09375 22.19C7.84572 22.4068 7.5405 22.5476 7.21456 22.5956C6.88863 22.6435 6.55579 22.5966 6.25583 22.4603C5.95588 22.3241 5.70151 22.1044 5.52314 21.8274C5.34476 21.5504 5.24994 21.2279 5.25 20.8985V17.5H4.375C3.21468 17.5 2.10188 17.0391 1.28141 16.2186C0.460936 15.3981 0 14.2853 0 13.125V4.375ZM11.375 10.5H20.125C20.3571 10.5 20.5796 10.4078 20.7437 10.2437C20.9078 10.0796 21 9.85706 21 9.625C21 9.39294 20.9078 9.17038 20.7437 9.00628C20.5796 8.84219 20.3571 8.75 20.125 8.75H11.375C11.1429 8.75 10.9204 8.84219 10.7563 9.00628C10.5922 9.17038 10.5 9.39294 10.5 9.625C10.5 9.85706 10.5922 10.0796 10.7563 10.2437C10.9204 10.4078 11.1429 10.5 11.375 10.5ZM7.875 8.75H4.375C4.14294 8.75 3.92038 8.84219 3.75628 9.00628C3.59219 9.17038 3.5 9.39294 3.5 9.625C3.5 9.85706 3.59219 10.0796 3.75628 10.2437C3.92038 10.4078 4.14294 10.5 4.375 10.5H7.875C8.10706 10.5 8.32962 10.4078 8.49372 10.2437C8.65781 10.0796 8.75 9.85706 8.75 9.625C8.75 9.39294 8.65781 9.17038 8.49372 9.00628C8.32962 8.84219 8.10706 8.75 7.875 8.75ZM4.375 12.25C4.14294 12.25 3.92038 12.3422 3.75628 12.5063C3.59219 12.6704 3.5 12.8929 3.5 13.125C3.5 13.3571 3.59219 13.5796 3.75628 13.7437C3.92038 13.9078 4.14294 14 4.375 14H13.125C13.3571 14 13.5796 13.9078 13.7437 13.7437C13.9078 13.5796 14 13.3571 14 13.125C14 12.8929 13.9078 12.6704 13.7437 12.5063C13.5796 12.3422 13.3571 12.25 13.125 12.25H4.375ZM16.625 14H20.125C20.3571 14 20.5796 13.9078 20.7437 13.7437C20.9078 13.5796 21 13.3571 21 13.125C21 12.8929 20.9078 12.6704 20.7437 12.5063C20.5796 12.3422 20.3571 12.25 20.125 12.25H16.625C16.3929 12.25 16.1704 12.3422 16.0063 12.5063C15.8422 12.6704 15.75 12.8929 15.75 13.125C15.75 13.3571 15.8422 13.5796 16.0063 13.7437C16.1704 13.9078 16.3929 14 16.625 14Z" fill="currentColor"/>
</svg>
