<svg width="25" height="25" viewBox="0 0 31 31" fill="none" xmlns="http://www.w3.org/2000/svg">
    <path
        d="M15.5 28.7857C22.837 28.7857 28.7857 22.837 28.7857 15.4999C28.7857 8.16291 22.837 2.21423 15.5 2.21423C8.16297 2.21423 2.21429 8.16291 2.21429 15.4999C2.21429 22.837 8.16297 28.7857 15.5 28.7857ZM15.0306 19.1513C14.307 18.8733 13.6498 18.4464 13.1017 17.8982C12.5536 17.3501 12.1267 16.693 11.8487 15.9694L9.72404 10.4403C9.68537 10.3403 9.67655 10.2313 9.69866 10.1264C9.72077 10.0215 9.77286 9.9253 9.84859 9.84944C9.92433 9.77359 10.0205 9.72136 10.1253 9.69908C10.2302 9.67681 10.3392 9.68546 10.4393 9.72398L15.9694 11.8497C16.6929 12.1276 17.35 12.5543 17.8981 13.1023C18.4462 13.6502 18.8732 14.3071 19.1514 15.0305L21.276 20.5607C21.3143 20.6606 21.3229 20.7695 21.3007 20.8742C21.2784 20.9789 21.2263 21.0749 21.1506 21.1506C21.0749 21.2262 20.9789 21.2784 20.8743 21.3006C20.7696 21.3229 20.6607 21.3143 20.5608 21.2759L15.0306 19.1513Z"
        fill="currentColor" />
</svg>