<svg width="20" height="16" viewBox="0 0 20 16" fill="none" xmlns="http://www.w3.org/2000/svg">
    <path
        d="M7.25762 0.247377C7.33522 0.325594 7.39678 0.418512 7.43879 0.52081C7.4808 0.623108 7.50242 0.732776 7.50242 0.843531C7.50242 0.954287 7.4808 1.06395 7.43879 1.16625C7.39678 1.26855 7.33522 1.36147 7.25762 1.43969L2.01301 6.73771L7.25762 12.0357C7.33509 12.114 7.39655 12.207 7.43847 12.3093C7.4804 12.4115 7.50198 12.5212 7.50198 12.6319C7.50198 12.7426 7.4804 12.8522 7.43847 12.9545C7.39655 13.0568 7.33509 13.1498 7.25762 13.2281C7.18014 13.3063 7.08817 13.3684 6.98694 13.4108C6.88572 13.4532 6.77722 13.475 6.66766 13.475C6.55809 13.475 6.4496 13.4532 6.34838 13.4108C6.24715 13.3684 6.15518 13.3063 6.0777 13.2281L0.244805 7.33387C0.167205 7.25565 0.105638 7.16273 0.0636308 7.06044C0.0216232 6.95814 0 6.84847 0 6.73771C0 6.62696 0.0216232 6.51729 0.0636308 6.41499C0.105638 6.31269 0.167205 6.21978 0.244805 6.14156L6.0777 0.247377C6.15511 0.168962 6.24706 0.106748 6.34829 0.0642993C6.44953 0.0218503 6.55806 0 6.66766 0C6.77726 0 6.88579 0.0218503 6.98703 0.0642993C7.08826 0.106748 7.18021 0.168962 7.25762 0.247377ZM12.2572 0.247377C12.3348 0.325594 12.3964 0.418512 12.4384 0.52081C12.4804 0.623108 12.502 0.732776 12.502 0.843531C12.502 0.954287 12.4804 1.06395 12.4384 1.16625C12.3964 1.26855 12.3348 1.36147 12.2572 1.43969L7.8459 5.89569H12.5006C14.4895 5.89569 16.397 6.69411 17.8035 8.1153C19.2099 9.5365 20 11.464 20 13.4739V15.158C20 15.3813 19.9122 15.5955 19.7559 15.7534C19.5997 15.9113 19.3877 16 19.1667 16C18.9457 16 18.7338 15.9113 18.5775 15.7534C18.4212 15.5955 18.3335 15.3813 18.3335 15.158V13.4739C18.3335 11.9107 17.7189 10.4115 16.625 9.30611C15.5312 8.20073 14.0475 7.57974 12.5006 7.57974H7.8459L12.2572 12.0357C12.4137 12.1939 12.5016 12.4083 12.5016 12.6319C12.5016 12.8555 12.4137 13.0699 12.2572 13.2281C12.1008 13.3862 11.8886 13.475 11.6673 13.475C11.446 13.475 11.2338 13.3862 11.0773 13.2281L5.24443 7.33387C5.16683 7.25565 5.10527 7.16273 5.06326 7.06044C5.02125 6.95814 4.99963 6.84847 4.99963 6.73771C4.99963 6.62696 5.02125 6.51729 5.06326 6.41499C5.10527 6.31269 5.16683 6.21978 5.24443 6.14156L11.0773 0.247377C11.1547 0.168962 11.2467 0.106748 11.3479 0.0642993C11.4492 0.0218503 11.5577 0 11.6673 0C11.7769 0 11.8854 0.0218503 11.9867 0.0642993C12.0879 0.106748 12.1798 0.168962 12.2572 0.247377Z"
        fill="#6A6A6A" />
</svg>