<svg class="downvote" width="20" height="12" viewBox="0 0 17 9" fill="none" xmlns="http://www.w3.org/2000/svg">
    <path
        d="M1.43332 0.241859C1.35222 0.164601 1.25681 0.104204 1.15256 0.0641136C1.0483 0.0240231 0.937227 0.00502586 0.825685 0.00820637C0.714144 0.0113869 0.604317 0.036684 0.502473 0.0826511C0.40063 0.128619 0.308766 0.194357 0.232125 0.276114C0.155485 0.357869 0.0955695 0.454042 0.0557997 0.559141C0.0160298 0.664239 -0.00281554 0.776204 0.000339802 0.888644C0.00349514 1.00108 0.0285893 1.1118 0.0741894 1.21446C0.11979 1.31712 0.185003 1.40973 0.266106 1.48699L7.91162 8.76592C8.06934 8.91624 8.27817 9 8.49523 9C8.71228 9 8.92111 8.91624 9.07883 8.76592L16.7252 1.48699C16.8081 1.41024 16.875 1.31765 16.9221 1.21461C16.9692 1.11157 16.9955 1.00013 16.9995 0.886752C17.0035 0.773376 16.9851 0.660331 16.9454 0.55418C16.9056 0.44803 16.8454 0.350893 16.7681 0.268409C16.6909 0.185925 16.5981 0.11974 16.4953 0.0736971C16.3924 0.0276546 16.2815 0.00267315 16.169 0.000203133C16.0565 -0.00226688 15.9446 0.0178232 15.8399 0.0593081C15.7351 0.100793 15.6396 0.162845 15.5588 0.241859L8.49523 6.96589L1.43332 0.241859Z"
        fill="currentColor" />
</svg>