<svg width="37" height="22" viewBox="0 0 37 25" fill="none" xmlns="http://www.w3.org/2000/svg">
    <path
        d="M6.0125 0C4.41789 0 2.88858 0.535015 1.76102 1.48735C0.633458 2.43968 0 3.73132 0 5.07812V19.9219C0 21.2687 0.633458 22.5603 1.76102 23.5127C2.88858 24.465 4.41789 25 6.0125 25H30.9875C31.7771 25 32.5589 24.8687 33.2884 24.6135C34.0179 24.3583 34.6807 23.9842 35.239 23.5127C35.7973 23.0411 36.2402 22.4813 36.5423 21.8652C36.8445 21.2491 37 20.5887 37 19.9219V5.07812C37 4.41126 36.8445 3.75092 36.5423 3.13481C36.2402 2.5187 35.7973 1.9589 35.239 1.48735C34.6807 1.0158 34.0179 0.641749 33.2884 0.38655C32.5589 0.13135 31.7771 0 30.9875 0H6.0125ZM2.775 5.07812C2.775 3.56875 4.2254 2.34375 6.0125 2.34375H30.9875C32.7746 2.34375 34.225 3.56875 34.225 5.07812V19.9219C34.225 20.6471 33.8839 21.3426 33.2768 21.8554C32.6696 22.3682 31.8461 22.6562 30.9875 22.6562H6.0125C5.15386 22.6562 4.33039 22.3682 3.72324 21.8554C3.11609 21.3426 2.775 20.6471 2.775 19.9219V5.07812ZM30.0625 4.6875C29.6945 4.6875 29.3416 4.81097 29.0814 5.03073C28.8212 5.2505 28.675 5.54857 28.675 5.85938V6.64062C28.675 6.95143 28.8212 7.2495 29.0814 7.46926C29.3416 7.68903 29.6945 7.8125 30.0625 7.8125C30.4305 7.8125 30.7834 7.68903 31.0436 7.46926C31.3038 7.2495 31.45 6.95143 31.45 6.64062V5.85938C31.45 5.54857 31.3038 5.2505 31.0436 5.03073C30.7834 4.81097 30.4305 4.6875 30.0625 4.6875ZM28.675 18.3594C28.675 18.0486 28.8212 17.7505 29.0814 17.5307C29.3416 17.311 29.6945 17.1875 30.0625 17.1875C30.4305 17.1875 30.7834 17.311 31.0436 17.5307C31.3038 17.7505 31.45 18.0486 31.45 18.3594V19.1406C31.45 19.4514 31.3038 19.7495 31.0436 19.9693C30.7834 20.189 30.4305 20.3125 30.0625 20.3125C29.6945 20.3125 29.3416 20.189 29.0814 19.9693C28.8212 19.7495 28.675 19.4514 28.675 19.1406V18.3594ZM30.0625 10.9375C29.6945 10.9375 29.3416 11.061 29.0814 11.2807C28.8212 11.5005 28.675 11.7986 28.675 12.1094V12.8906C28.675 13.2014 28.8212 13.4995 29.0814 13.7193C29.3416 13.939 29.6945 14.0625 30.0625 14.0625C30.4305 14.0625 30.7834 13.939 31.0436 13.7193C31.3038 13.4995 31.45 13.2014 31.45 12.8906V12.1094C31.45 11.7986 31.3038 11.5005 31.0436 11.2807C30.7834 11.061 30.4305 10.9375 30.0625 10.9375ZM5.55 5.85938C5.55 5.54857 5.69618 5.2505 5.95639 5.03073C6.2166 4.81097 6.56951 4.6875 6.9375 4.6875C7.30549 4.6875 7.6584 4.81097 7.91861 5.03073C8.17882 5.2505 8.325 5.54857 8.325 5.85938V6.64062C8.325 6.95143 8.17882 7.2495 7.91861 7.46926C7.6584 7.68903 7.30549 7.8125 6.9375 7.8125C6.56951 7.8125 6.2166 7.68903 5.95639 7.46926C5.69618 7.2495 5.55 6.95143 5.55 6.64062V5.85938ZM6.9375 17.1875C6.56951 17.1875 6.2166 17.311 5.95639 17.5307C5.69618 17.7505 5.55 18.0486 5.55 18.3594V19.1406C5.55 19.4514 5.69618 19.7495 5.95639 19.9693C6.2166 20.189 6.56951 20.3125 6.9375 20.3125C7.30549 20.3125 7.6584 20.189 7.91861 19.9693C8.17882 19.7495 8.325 19.4514 8.325 19.1406V18.3594C8.325 18.0486 8.17882 17.7505 7.91861 17.5307C7.6584 17.311 7.30549 17.1875 6.9375 17.1875ZM5.55 12.1094C5.55 11.7986 5.69618 11.5005 5.95639 11.2807C6.2166 11.061 6.56951 10.9375 6.9375 10.9375C7.30549 10.9375 7.6584 11.061 7.91861 11.2807C8.17882 11.5005 8.325 11.7986 8.325 12.1094V12.8906C8.325 13.2014 8.17882 13.4995 7.91861 13.7193C7.6584 13.939 7.30549 14.0625 6.9375 14.0625C6.56951 14.0625 6.2166 13.939 5.95639 13.7193C5.69618 13.4995 5.55 13.2014 5.55 12.8906V12.1094ZM14.8 8.98594C14.8 8.08125 15.8656 7.51719 16.7129 7.975L23.5117 11.6359C24.2295 12.0219 24.2295 12.9781 23.5117 13.3641L16.7129 17.025C15.8656 17.4828 14.8 16.9187 14.8 16.0141V8.98594Z"
        fill="#E6E6E6" />
</svg>