<svg width="18" height="21" viewBox="0 0 18 21" fill="none" xmlns="http://www.w3.org/2000/svg">
    <path
        d="M1.3615 20.8583C1.22971 20.9464 1.07645 20.9971 0.918095 21.0049C0.759736 21.0127 0.60223 20.9774 0.462412 20.9026C0.322593 20.8278 0.205716 20.7165 0.12427 20.5805C0.0428237 20.4444 -0.000129392 20.2888 2.9279e-07 20.1303V3.51926C-1.5613e-06 2.59221 0.367786 1.70303 1.02265 1.04685C1.67751 0.390678 2.56596 0.0211112 3.493 0.0192571L13.993 7.0146e-06C14.4526 -0.000913158 14.9079 0.0887064 15.3329 0.263748C15.7579 0.43879 16.1443 0.695826 16.4699 1.02018C16.7956 1.34454 17.0542 1.72986 17.2309 2.15415C17.4076 2.57844 17.4991 3.03338 17.5 3.49301V20.1285C17.5001 20.2871 17.4572 20.4427 17.3757 20.5787C17.2943 20.7147 17.1774 20.8261 17.0376 20.9008C16.8978 20.9756 16.7403 21.011 16.5819 21.0032C16.4235 20.9954 16.2703 20.9447 16.1385 20.8565L8.75 15.9215L1.3615 20.8583ZM15.75 3.50176L15.7378 3.29526C15.6871 2.86929 15.4818 2.47674 15.1608 2.19219C14.8398 1.90764 14.4255 1.75091 13.9965 1.75176L3.4965 1.76926C3.03298 1.77018 2.58876 1.95497 2.26132 2.28306C1.93389 2.61114 1.75 3.05573 1.75 3.51926V18.494L8.2635 14.1453C8.40747 14.049 8.57679 13.9975 8.75 13.9975C8.92321 13.9975 9.09253 14.049 9.2365 14.1453L15.75 18.494V3.50176Z"
        fill="currentColor" />
</svg>