<svg width="25" height="26" viewBox="0 0 31 31" fill="none" xmlns="http://www.w3.org/2000/svg">
    <path
        d="M15.5 3.09998C14.2668 3.09998 13.084 3.58989 12.212 4.46193C11.3399 5.33397 10.85 6.51672 10.85 7.74998C10.85 8.98323 11.3399 10.166 12.212 11.038C13.084 11.9101 14.2668 12.4 15.5 12.4C16.7333 12.4 17.916 11.9101 18.7881 11.038C19.6601 10.166 20.15 8.98323 20.15 7.74998C20.15 6.51672 19.6601 5.33397 18.7881 4.46193C17.916 3.58989 16.7333 3.09998 15.5 3.09998ZM7.83217 15.4938C7.77947 15.7459 7.75312 16.0063 7.75312 16.275V21.7C7.75211 22.8253 7.99665 23.9372 8.4697 24.9583C8.94274 25.9793 9.63288 26.8849 10.492 27.6117L10.2269 27.6892C9.4404 27.9002 8.62003 27.9541 7.81266 27.848C7.00528 27.7419 6.22672 27.4778 5.52143 27.0707C4.81615 26.6637 4.19796 26.1217 3.70217 25.4757C3.20638 24.8297 2.84271 24.0923 2.63192 23.3058L1.62907 19.5625C1.55008 19.2676 1.52996 18.96 1.56986 18.6573C1.60976 18.3545 1.7089 18.0626 1.86161 17.7982C2.01432 17.5338 2.21762 17.3021 2.45989 17.1163C2.70217 16.9304 2.97867 16.7941 3.27362 16.7152L7.83217 15.4938ZM20.5143 27.6117C21.3734 26.8849 22.0635 25.9793 22.5365 24.9583C23.0096 23.9372 23.2541 22.8253 23.2531 21.7V16.275C23.2521 16.0063 23.2262 15.7459 23.1756 15.4938L27.7326 16.7152C28.328 16.875 28.8356 17.2647 29.1437 17.7987C29.4518 18.3326 29.5352 18.9671 29.3756 19.5625L28.3728 23.3058C28.1559 24.1146 27.7775 24.8711 27.2603 25.5297C26.7431 26.1883 26.0978 26.7353 25.3635 27.1377C24.6291 27.5401 23.8208 27.7895 22.9874 27.871C22.154 27.9524 21.3127 27.8642 20.5143 27.6117ZM25.575 6.19998C24.5473 6.19998 23.5617 6.60823 22.835 7.33494C22.1083 8.06164 21.7 9.04726 21.7 10.075C21.7 11.1027 22.1083 12.0883 22.835 12.815C23.5617 13.5417 24.5473 13.95 25.575 13.95C26.6027 13.95 27.5884 13.5417 28.3151 12.815C29.0418 12.0883 29.45 11.1027 29.45 10.075C29.45 9.04726 29.0418 8.06164 28.3151 7.33494C27.5884 6.60823 26.6027 6.19998 25.575 6.19998ZM5.42502 6.19998C4.3973 6.19998 3.41168 6.60823 2.68498 7.33494C1.95828 8.06164 1.55002 9.04726 1.55002 10.075C1.55002 11.1027 1.95828 12.0883 2.68498 12.815C3.41168 13.5417 4.3973 13.95 5.42502 13.95C6.45273 13.95 7.43835 13.5417 8.16506 12.815C8.89176 12.0883 9.30002 11.1027 9.30002 10.075C9.30002 9.04726 8.89176 8.06164 8.16506 7.33494C7.43835 6.60823 6.45273 6.19998 5.42502 6.19998ZM11.625 13.95C11.0084 13.95 10.417 14.1949 9.98099 14.631C9.54497 15.067 9.30002 15.6583 9.30002 16.275V21.7C9.30002 23.3443 9.95323 24.9213 11.116 26.084C12.2787 27.2468 13.8557 27.9 15.5 27.9C17.1444 27.9 18.7214 27.2468 19.8841 26.084C21.0468 24.9213 21.7 23.3443 21.7 21.7V16.275C21.7 15.6583 21.4551 15.067 21.019 14.631C20.583 14.1949 19.9916 13.95 19.375 13.95H11.625Z"
        fill="currentColor" />
</svg>