<svg width="20" height="20" viewBox="0 0 26 26" fill="none" xmlns="http://www.w3.org/2000/svg">
    <path
        d="M11.2892 0.577129C11.7494 0.203766 12.324 0 12.9167 0C13.5093 0 14.0839 0.203766 14.5442 0.577129L24.397 8.55963C24.845 8.92244 25.2064 9.38064 25.4549 9.90084C25.7034 10.421 25.8327 10.9901 25.8333 11.5666V23.2536C25.8333 23.9388 25.5612 24.5959 25.0767 25.0803C24.5922 25.5648 23.9351 25.837 23.25 25.837H19.375C18.6899 25.837 18.0328 25.5648 17.5483 25.0803C17.0638 24.5959 16.7917 23.9388 16.7917 23.2536V16.7953C16.7917 16.4527 16.6556 16.1242 16.4133 15.8819C16.1711 15.6397 15.8426 15.5036 15.5 15.5036H10.3333C9.99076 15.5036 9.66222 15.6397 9.41999 15.8819C9.17775 16.1242 9.04167 16.4527 9.04167 16.7953V23.2536C9.04167 23.9388 8.76949 24.5959 8.28502 25.0803C7.80056 25.5648 7.14348 25.837 6.45833 25.837H2.58333C1.89819 25.837 1.24111 25.5648 0.756641 25.0803C0.272172 24.5959 7.58439e-08 23.9388 7.58439e-08 23.2536V11.5692C-0.000114149 10.9918 0.128795 10.4217 0.377303 9.90059C0.625812 9.37944 0.987638 8.9204 1.43633 8.55704L11.2892 0.577129Z"
        fill="currentColor" />
</svg>