<svg width="22" height="22" viewBox="0 0 22 22" fill="none" xmlns="http://www.w3.org/2000/svg">
    <path
        d="M2.83333 4C2.83333 3.69058 2.95625 3.39383 3.17504 3.17504C3.39383 2.95625 3.69058 2.83333 4 2.83333H6.33333C6.64275 2.83333 6.9395 2.71042 7.15829 2.49162C7.37708 2.27283 7.5 1.97609 7.5 1.66667C7.5 1.35725 7.37708 1.0605 7.15829 0.841709C6.9395 0.622916 6.64275 0.5 6.33333 0.5H4C3.07174 0.5 2.1815 0.868749 1.52513 1.52513C0.868749 2.1815 0.5 3.07174 0.5 4V6.33333C0.5 6.64275 0.622916 6.9395 0.841709 7.15829C1.0605 7.37708 1.35725 7.5 1.66667 7.5C1.97609 7.5 2.27283 7.37708 2.49162 7.15829C2.71042 6.9395 2.83333 6.64275 2.83333 6.33333V4ZM2.83333 18C2.83333 18.3094 2.95625 18.6062 3.17504 18.825C3.39383 19.0438 3.69058 19.1667 4 19.1667H6.33333C6.64275 19.1667 6.9395 19.2896 7.15829 19.5084C7.37708 19.7272 7.5 20.0239 7.5 20.3333C7.5 20.6428 7.37708 20.9395 7.15829 21.1583C6.9395 21.3771 6.64275 21.5 6.33333 21.5H4C3.07174 21.5 2.1815 21.1313 1.52513 20.4749C0.868749 19.8185 0.5 18.9283 0.5 18V15.6667C0.5 15.3572 0.622916 15.0605 0.841709 14.8417C1.0605 14.6229 1.35725 14.5 1.66667 14.5C1.97609 14.5 2.27283 14.6229 2.49162 14.8417C2.71042 15.0605 2.83333 15.3572 2.83333 15.6667V18ZM18 2.83333C18.3094 2.83333 18.6062 2.95625 18.825 3.17504C19.0438 3.39383 19.1667 3.69058 19.1667 4V6.33333C19.1667 6.64275 19.2896 6.9395 19.5084 7.15829C19.7272 7.37708 20.0239 7.5 20.3333 7.5C20.6428 7.5 20.9395 7.37708 21.1583 7.15829C21.3771 6.9395 21.5 6.64275 21.5 6.33333V4C21.5 3.07174 21.1313 2.1815 20.4749 1.52513C19.8185 0.868749 18.9283 0.5 18 0.5H15.6667C15.3572 0.5 15.0605 0.622916 14.8417 0.841709C14.6229 1.0605 14.5 1.35725 14.5 1.66667C14.5 1.97609 14.6229 2.27283 14.8417 2.49162C15.0605 2.71042 15.3572 2.83333 15.6667 2.83333H18ZM19.1667 18C19.1667 18.3094 19.0438 18.6062 18.825 18.825C18.6062 19.0438 18.3094 19.1667 18 19.1667H15.6667C15.3572 19.1667 15.0605 19.2896 14.8417 19.5084C14.6229 19.7272 14.5 20.0239 14.5 20.3333C14.5 20.6428 14.6229 20.9395 14.8417 21.1583C15.0605 21.3771 15.3572 21.5 15.6667 21.5H18C18.9283 21.5 19.8185 21.1313 20.4749 20.4749C21.1313 19.8185 21.5 18.9283 21.5 18V15.6667C21.5 15.3572 21.3771 15.0605 21.1583 14.8417C20.9395 14.6229 20.6428 14.5 20.3333 14.5C20.0239 14.5 19.7272 14.6229 19.5084 14.8417C19.2896 15.0605 19.1667 15.3572 19.1667 15.6667V18Z"
        fill="#E6E6E6" />
</svg>