<svg width="25" height="25" viewBox="0 0 31 31" fill="none" xmlns="http://www.w3.org/2000/svg">
    <path
        d="M15.5 2.58331C10.1499 2.58331 5.81249 6.92073 5.81249 12.2708V17.752L4.00157 21.8563C3.90402 22.0774 3.86319 22.3194 3.88276 22.5604C3.90234 22.8013 3.98171 23.0335 4.11369 23.2361C4.24566 23.4386 4.42607 23.605 4.63858 23.7202C4.85109 23.8354 5.08897 23.8957 5.3307 23.8958H25.6693C25.911 23.8957 26.1489 23.8354 26.3614 23.7202C26.5739 23.605 26.7543 23.4386 26.8863 23.2361C27.0183 23.0335 27.0976 22.8013 27.1172 22.5604C27.1368 22.3194 27.096 22.0774 26.9984 21.8563L25.1875 17.752V12.2708C25.1875 6.92073 20.8501 2.58331 15.5 2.58331ZM15.5 28.4166C14.5841 28.4168 13.6979 28.0925 12.9983 27.5014C12.2988 26.9103 11.8312 26.0905 11.6786 25.1875H19.3214C19.1687 26.0905 18.7012 26.9103 18.0017 27.5014C17.3021 28.0925 16.4158 28.4168 15.5 28.4166Z"
        fill="currentColor" />
</svg>