<svg width="31" height="31" viewBox="0 0 31 31" fill="none" xmlns="http://www.w3.org/2000/svg">
<path d="M15.5 3.87501C13.1876 3.87501 10.97 4.79359 9.33489 6.42867C7.69981 8.06376 6.78123 10.2814 6.78123 12.5938V17.2457L4.91348 21.9228C4.85498 22.0697 4.83332 22.2287 4.85039 22.3859C4.86746 22.543 4.92274 22.6937 5.01141 22.8246C5.10008 22.9555 5.21944 23.0627 5.35908 23.1368C5.49871 23.211 5.65437 23.2498 5.81248 23.25H25.1875C25.3456 23.2498 25.5012 23.211 25.6409 23.1368C25.7805 23.0627 25.8999 22.9555 25.9885 22.8246C26.0772 22.6937 26.1325 22.543 26.1496 22.3859C26.1666 22.2287 26.145 22.0697 26.0865 21.9228L24.2187 17.2438V13.5625C23.2862 13.5626 22.3735 13.2935 21.5902 12.7876C20.8068 12.2816 20.1862 11.5603 19.8028 10.7102C19.4194 9.86016 19.2896 8.91751 19.4288 7.99545C19.5681 7.07339 19.9705 6.21112 20.5879 5.5122C19.1063 4.44491 17.3259 3.87201 15.5 3.87501ZM15.5 28.0938C14.6407 28.094 13.8058 27.8086 13.1264 27.2825C12.4471 26.7564 11.9619 26.0195 11.747 25.1875H19.2529C19.0381 26.0195 18.5529 26.7564 17.8735 27.2825C17.1942 27.8086 16.3592 28.094 15.5 28.0938ZM24.2187 11.625C24.9895 11.625 25.7287 11.3188 26.2738 10.7738C26.8188 10.2288 27.125 9.48955 27.125 8.71876C27.125 7.94798 26.8188 7.20876 26.2738 6.66373C25.7287 6.11871 24.9895 5.81251 24.2187 5.81251C23.4479 5.81251 22.7087 6.11871 22.1637 6.66373C21.6187 7.20876 21.3125 7.94798 21.3125 8.71876C21.3125 9.48955 21.6187 10.2288 22.1637 10.7738C22.7087 11.3188 23.4479 11.625 24.2187 11.625Z" fill="currentColor"/>
</svg>
