<svg width="28" height="28" viewBox="0 0 28 28" fill="none" xmlns="http://www.w3.org/2000/svg">
    <path
        d="M10.9113 3.836C10.5119 3.61151 10.0607 3.49545 9.6026 3.49936C9.14448 3.50327 8.69536 3.62701 8.29988 3.85828C7.9044 4.08955 7.57634 4.4203 7.3483 4.81765C7.12026 5.215 7.00018 5.66511 7 6.12325V21.8732C6.99987 22.3315 7.11973 22.7819 7.34764 23.1795C7.57556 23.577 7.9036 23.908 8.29913 24.1395C8.69465 24.371 9.14389 24.4949 9.60216 24.4989C10.0604 24.5029 10.5118 24.3868 10.9113 24.1622L24.9113 16.2872C25.3173 16.0589 25.6553 15.7267 25.8905 15.3246C26.1258 14.9224 26.2497 14.465 26.2497 13.9991C26.2497 13.5333 26.1258 13.0758 25.8905 12.6737C25.6553 12.2716 25.3173 11.9393 24.9113 11.711L10.9113 3.836Z"
        fill="currentColor" />
</svg>