<svg width="14" height="11" viewBox="0 0 14 11" fill="none" xmlns="http://www.w3.org/2000/svg">
    <path
        d="M5.21645 1.33273C5.35813 1.18441 5.43653 0.985764 5.43476 0.779571C5.43298 0.573379 5.35118 0.376139 5.20698 0.230333C5.06277 0.084527 4.86769 0.00182149 4.66376 2.9728e-05C4.45982 -0.00176203 4.26335 0.0775035 4.11666 0.220753L0.227725 4.15278C0.0819129 4.30025 0 4.50024 0 4.70876C0 4.91729 0.0819129 5.11728 0.227725 5.26475L4.11666 9.19678C4.26335 9.34002 4.45982 9.41929 4.66376 9.4175C4.86769 9.41571 5.06277 9.333 5.20698 9.18719C5.35118 9.04139 5.43298 8.84415 5.43476 8.63796C5.43653 8.43176 5.35813 8.23312 5.21645 8.0848L2.6552 5.49517H7.7777C9.0154 5.49517 10.2024 5.99229 11.0776 6.87716C11.9528 7.76204 12.4444 8.96219 12.4444 10.2136C12.4444 10.4222 12.5264 10.6222 12.6722 10.7697C12.8181 10.9171 13.0159 11 13.2222 11C13.4285 11 13.6263 10.9171 13.7722 10.7697C13.9181 10.6222 14 10.4222 14 10.2136C14 8.54506 13.3444 6.94486 12.1775 5.76502C11.0106 4.58518 9.42796 3.92236 7.7777 3.92236H2.6552L5.21645 1.33273Z"
        fill="#E6E6E6" />
</svg>