<svg width="25" height="25" viewBox="0 0 31 31" fill="none" xmlns="http://www.w3.org/2000/svg">
    <path
        d="M12.9167 2.58337C11.3002 2.58424 9.70656 2.96431 8.26371 3.69303C6.82085 4.42176 5.56908 5.47881 4.609 6.77924C3.64893 8.07966 3.00732 9.58719 2.73575 11.1806C2.46418 12.7741 2.57022 14.409 3.04535 15.9541C3.52048 17.4991 4.35145 18.9111 5.47147 20.0766C6.59149 21.2421 7.96932 22.1286 9.49422 22.6649C11.0191 23.2011 12.6485 23.3721 14.2515 23.1642C15.8546 22.9562 17.3864 22.3751 18.724 21.4675L25.11 27.8484C25.2874 28.0387 25.5013 28.1914 25.739 28.2973C25.9766 28.4032 26.2332 28.4601 26.4933 28.4647C26.7535 28.4693 27.0119 28.4215 27.2531 28.324C27.4944 28.2266 27.7135 28.0815 27.8975 27.8976C28.0815 27.7136 28.2265 27.4944 28.324 27.2532C28.4214 27.0119 28.4693 26.7535 28.4647 26.4934C28.4601 26.2332 28.4032 25.9766 28.2973 25.739C28.1914 25.5013 28.0387 25.2874 27.8483 25.11L21.4675 18.724C22.5232 17.1704 23.1353 15.3584 23.2382 13.4828C23.3411 11.6073 22.9309 9.73915 22.0515 8.07932C21.1722 6.41949 19.8571 5.03073 18.2476 4.06238C16.6381 3.09402 14.795 2.58269 12.9167 2.58337ZM6.45834 12.9167C6.45834 11.2039 7.13877 9.56115 8.34995 8.34998C9.56112 7.1388 11.2038 6.45837 12.9167 6.45837C14.6295 6.45837 16.2722 7.1388 17.4834 8.34998C18.6946 9.56115 19.375 11.2039 19.375 12.9167C19.375 14.6296 18.6946 16.2723 17.4834 17.4834C16.2722 18.6946 14.6295 19.375 12.9167 19.375C11.2038 19.375 9.56112 18.6946 8.34995 17.4834C7.13877 16.2723 6.45834 14.6296 6.45834 12.9167Z"
        fill="currentColor" />
</svg>