<svg width="25" height="25" viewBox="0 0 31 31" fill="none" xmlns="http://www.w3.org/2000/svg">
    <path
        d="M12.5899 28.0731C13.5451 28.3011 14.5229 28.416 15.5045 28.416C16.4841 28.4151 17.4601 28.2994 18.4127 28.0711C18.6631 28.0108 18.8889 27.8748 19.0592 27.6816C19.2296 27.4884 19.3362 27.2473 19.3647 26.9913L19.583 25.008C19.6201 24.6534 19.7824 24.3237 20.0409 24.078C20.2993 23.8324 20.6368 23.687 20.9928 23.6679C21.2298 23.6575 21.4656 23.7021 21.6826 23.797L23.4954 24.592C23.653 24.663 23.8237 24.7002 23.9965 24.7014C24.1694 24.7025 24.3405 24.6674 24.499 24.5985C24.6586 24.5307 24.8013 24.4299 24.9188 24.3027C26.2513 22.8656 27.2464 21.1492 27.8315 19.2788C27.9083 19.0306 27.906 18.7648 27.825 18.518C27.744 18.2712 27.5883 18.0556 27.3795 17.9012L25.7687 16.7129C25.5769 16.5735 25.4208 16.3908 25.3131 16.1795C25.2054 15.9683 25.1493 15.7345 25.1493 15.4974C25.1493 15.2603 25.2054 15.0266 25.3131 14.8153C25.4208 14.6041 25.5769 14.4213 25.7687 14.282L27.3743 13.0962C27.5838 12.9416 27.7399 12.7255 27.8209 12.478C27.9019 12.2306 27.9038 11.964 27.8264 11.7154C27.2421 9.84427 26.2457 8.12794 24.9104 6.69278C24.7334 6.50407 24.5022 6.37482 24.2487 6.32278C23.9952 6.27075 23.7319 6.29847 23.4948 6.40215L21.6826 7.2004C21.4953 7.28501 21.2912 7.32957 21.0845 7.32957C20.7126 7.32855 20.3541 7.19043 20.0777 6.94163C19.8012 6.69283 19.6262 6.35082 19.5862 5.98107L19.3666 4.00482C19.3382 3.74554 19.2296 3.50158 19.056 3.30696C18.8823 3.11235 18.6522 2.97678 18.3979 2.91917C17.45 2.70774 16.4827 2.59541 15.5116 2.58398C14.5339 2.59563 13.56 2.70817 12.6054 2.91982C12.3511 2.97683 12.1211 3.11188 11.9474 3.30608C11.7737 3.50027 11.665 3.74389 11.6366 4.00288L11.417 5.98042C11.3753 6.35079 11.1988 6.69286 10.921 6.94142C10.6373 7.18222 10.2798 7.31893 9.90772 7.32892C9.7025 7.32878 9.49953 7.28612 9.31162 7.20363L7.50329 6.40538C7.26543 6.30067 7.0009 6.27252 6.74633 6.32482C6.49176 6.37712 6.25976 6.50729 6.08245 6.6973C4.74942 8.13306 3.75425 9.84869 3.16975 11.7187C3.09242 11.9672 3.09441 12.2336 3.17542 12.4809C3.25644 12.7282 3.41246 12.9442 3.62183 13.0988L5.22866 14.2845C5.51571 14.4967 5.71856 14.8034 5.8014 15.1506C5.88424 15.4978 5.84173 15.8631 5.68139 16.182C5.57473 16.3934 5.41987 16.5768 5.22931 16.7174L3.62118 17.9051C3.41208 18.0596 3.25622 18.2753 3.17521 18.5224C3.09421 18.7695 3.09207 19.0356 3.1691 19.2839C3.75198 21.156 4.74731 22.8734 6.08181 24.3098C6.25808 24.4999 6.48923 24.6303 6.74309 24.6829C6.99694 24.7354 7.26087 24.7075 7.49812 24.603L9.31808 23.8041C9.50602 23.7215 9.70881 23.6788 9.91418 23.6788H9.91935C10.2899 23.6796 10.6472 23.8165 10.9234 24.0634C11.1997 24.3104 11.3756 24.6502 11.4177 25.0183L11.636 26.9926C11.6644 27.249 11.7713 27.4904 11.942 27.6837C12.1127 27.8771 12.339 28.0131 12.5899 28.0731ZM15.5 19.5365C14.4295 19.5365 13.4028 19.1112 12.6458 18.3542C11.8888 17.5972 11.4635 16.5705 11.4635 15.5C11.4635 14.4295 11.8888 13.4028 12.6458 12.6458C13.4028 11.8888 14.4295 11.4635 15.5 11.4635C16.5705 11.4635 17.5972 11.8888 18.3542 12.6458C19.1112 13.4028 19.5365 14.4295 19.5365 15.5C19.5365 16.5705 19.1112 17.5972 18.3542 18.3542C17.5972 19.1112 16.5705 19.5365 15.5 19.5365Z"
        fill="currentColor" />
</svg>