<svg class="upvote" width="20" height="12" viewBox="0 0 17 9" fill="none" xmlns="http://www.w3.org/2000/svg">
    <path
        d="M15.5667 8.75814C15.6478 8.8354 15.7432 8.8958 15.8474 8.93589C15.9517 8.97598 16.0628 8.99497 16.1743 8.99179C16.2859 8.98861 16.3957 8.96332 16.4975 8.91735C16.5994 8.87138 16.6912 8.80564 16.7679 8.72389C16.8445 8.64213 16.9044 8.54596 16.9442 8.44086C16.984 8.33576 17.0028 8.2238 16.9997 8.11136C16.9965 7.99892 16.9714 7.8882 16.9258 7.78554C16.8802 7.68288 16.815 7.59027 16.7339 7.51301L9.08838 0.234076C8.93066 0.083756 8.72183 0 8.50477 0C8.28772 0 8.07889 0.083756 7.92117 0.234076L0.274803 7.51301C0.191925 7.58976 0.125 7.68235 0.0779171 7.78539C0.0308342 7.88843 0.00452995 7.99987 0.000534058 8.11325C-0.00346184 8.22662 0.0149307 8.33967 0.0546417 8.44582C0.0943508 8.55197 0.154589 8.64911 0.231855 8.73159C0.30912 8.81407 0.401875 8.88026 0.50473 8.9263C0.607586 8.97235 0.718491 8.99733 0.831005 8.9998C0.943518 9.00227 1.0554 8.98218 1.16014 8.94069C1.26489 8.89921 1.36041 8.83716 1.44117 8.75814L8.50477 2.03411L15.5667 8.75814Z"
        fill="currentColor" />
</svg>