<svg width="10" height="10" viewBox="0 0 10 10" fill="none" xmlns="http://www.w3.org/2000/svg">
<path d="M3.42729 0.0734435C3.45057 0.0966653 3.46904 0.124252 3.48165 0.154623C3.49425 0.184994 3.50074 0.217553 3.50074 0.250436C3.50074 0.283318 3.49425 0.315877 3.48165 0.346248C3.46904 0.376619 3.45057 0.404206 3.42729 0.427428L0.853909 3.00031H6.50016C6.95976 3.00031 7.41487 3.09084 7.83949 3.26672C8.26411 3.44261 8.64993 3.7004 8.97492 4.02539C9.29991 4.35038 9.55771 4.7362 9.73359 5.16082C9.90948 5.58544 10 6.04055 10 6.50016C10 6.95976 9.90948 7.41487 9.73359 7.83949C9.55771 8.26411 9.29991 8.64993 8.97492 8.97492C8.64993 9.29991 8.26411 9.55771 7.83949 9.73359C7.41487 9.90947 6.95976 10 6.50016 10H1.75037C1.68407 10 1.62048 9.97366 1.5736 9.92678C1.52672 9.8799 1.50038 9.81631 1.50038 9.75001C1.50038 9.68371 1.52672 9.62012 1.5736 9.57324C1.62048 9.52636 1.68407 9.50002 1.75037 9.50002H6.50016C7.29577 9.50002 8.0588 9.18397 8.62138 8.62138C9.18397 8.0588 9.50002 7.29577 9.50002 6.50016C9.50002 5.70454 9.18397 4.94152 8.62138 4.37893C8.0588 3.81635 7.29577 3.50029 6.50016 3.50029H0.853909L3.42729 6.07318C3.47424 6.12012 3.50061 6.18378 3.50061 6.25017C3.50061 6.31655 3.47424 6.38022 3.42729 6.42716C3.38035 6.4741 3.31669 6.50047 3.2503 6.50047C3.18392 6.50047 3.12025 6.4741 3.07331 6.42716L0.0734435 3.42729C0.0501629 3.40407 0.0316922 3.37649 0.0190896 3.34611C0.0064869 3.31574 0 3.28318 0 3.2503C0 3.21742 0.0064869 3.18486 0.0190896 3.15449C0.0316922 3.12412 0.0501629 3.09653 0.0734435 3.07331L3.07331 0.0734435C3.09653 0.0501629 3.12412 0.0316922 3.15449 0.0190896C3.18486 0.0064869 3.21742 0 3.2503 0C3.28318 0 3.31574 0.0064869 3.34611 0.0190896C3.37649 0.0316922 3.40407 0.0501629 3.42729 0.0734435Z" fill="#DED5D5"/>
</svg>
