<svg width="20" height="20" viewBox="0 0 20 20" fill="none" xmlns="http://www.w3.org/2000/svg">
<path d="M10 0C15.523 0 20 4.477 20 10C20 15.523 15.523 20 10 20C4.477 20 0 15.523 0 10C0 4.477 4.477 0 10 0ZM10 1.25C5.1675 1.25 1.25 5.1675 1.25 10C1.25 14.8325 5.1675 18.75 10 18.75C14.8325 18.75 18.75 14.8325 18.75 10C18.75 5.1675 14.8325 1.25 10 1.25ZM14.317 6.808C14.3751 6.86604 14.4211 6.93495 14.4525 7.01079C14.4839 7.08662 14.5001 7.16791 14.5001 7.25C14.5001 7.33209 14.4839 7.41338 14.4525 7.48921C14.4211 7.56505 14.3751 7.63396 14.317 7.692L8.817 13.192C8.75896 13.2501 8.69005 13.2961 8.61421 13.3275C8.53838 13.3589 8.45709 13.3751 8.375 13.3751C8.29291 13.3751 8.21162 13.3589 8.13579 13.3275C8.05995 13.2961 7.99104 13.2501 7.933 13.192L5.683 10.942C5.56577 10.8248 5.49992 10.6658 5.49992 10.5C5.49992 10.3342 5.56577 10.1752 5.683 10.058C5.80023 9.94077 5.95922 9.87492 6.125 9.87492C6.29078 9.87492 6.44977 9.94077 6.567 10.058L8.375 11.866L13.433 6.808C13.491 6.74995 13.5599 6.70389 13.6358 6.67247C13.7116 6.64106 13.7929 6.62488 13.875 6.62488C13.9571 6.62488 14.0384 6.64106 14.1142 6.67247C14.1901 6.70389 14.259 6.74995 14.317 6.808Z" fill="#DED5D5"/>
</svg>
