<svg width="65" height="65" viewBox="0 0 65 65" fill="none" xmlns="http://www.w3.org/2000/svg">
    <rect width="65" height="65" fill="#E0E0E0" />
    <path
        d="M51.4583 24.375C52.1766 24.375 52.8655 24.6604 53.3734 25.1683C53.8813 25.6762 54.1667 26.3651 54.1667 27.0834C54.1673 32.3606 52.2418 37.4566 48.7517 41.415C45.2616 45.3733 40.4468 47.9218 35.2111 48.5821L35.2083 54.1667H43.3333C44.0516 54.1667 44.7405 54.452 45.2484 54.96C45.7563 55.4679 46.0417 56.1567 46.0417 56.875C46.0417 57.5933 45.7563 58.2822 45.2484 58.7901C44.7405 59.298 44.0516 59.5834 43.3333 59.5834H21.6667C20.9484 59.5834 20.2595 59.298 19.7516 58.7901C19.2437 58.2822 18.9583 57.5933 18.9583 56.875C18.9583 56.1567 19.2437 55.4679 19.7516 54.96C20.2595 54.452 20.9484 54.1667 21.6667 54.1667H29.7917V48.5821C24.5554 47.9224 19.74 45.3742 16.2493 41.4158C12.7587 37.4574 10.8329 32.361 10.8333 27.0834C10.8333 26.3651 11.1187 25.6762 11.6266 25.1683C12.1345 24.6604 12.8234 24.375 13.5417 24.375C14.26 24.375 14.9488 24.6604 15.4568 25.1683C15.9647 25.6762 16.25 26.3651 16.25 27.0834C16.25 31.3931 17.9621 35.5264 21.0095 38.5739C24.057 41.6213 28.1902 43.3334 32.5 43.3334C36.8098 43.3334 40.943 41.6213 43.9905 38.5739C47.038 35.5264 48.75 31.3931 48.75 27.0834C48.75 26.3651 49.0353 25.6762 49.5433 25.1683C50.0512 24.6604 50.74 24.375 51.4583 24.375ZM32.5 2.70837C35.3732 2.70837 38.1287 3.84974 40.1603 5.88138C42.192 7.91303 43.3333 10.6685 43.3333 13.5417V27.0834C43.3333 29.9566 42.192 32.7121 40.1603 34.7437C38.1287 36.7753 35.3732 37.9167 32.5 37.9167C29.6268 37.9167 26.8713 36.7753 24.8397 34.7437C22.808 32.7121 21.6667 29.9566 21.6667 27.0834V13.5417C21.6667 10.6685 22.808 7.91303 24.8397 5.88138C26.8713 3.84974 29.6268 2.70837 32.5 2.70837Z"
        fill="black" />
</svg>