<svg width="40" height="40" viewBox="0 0 24 24" fill="none" xmlns="http://www.w3.org/2000/svg">
    <path
        d="M12 0.625C9.75023 0.625 7.551 1.29213 5.68039 2.54203C3.80978 3.79193 2.35181 5.56847 1.49087 7.64698C0.629921 9.72549 0.404658 12.0126 0.843565 14.2192C1.28247 16.4257 2.36584 18.4525 3.95666 20.0433C5.54748 21.6342 7.57431 22.7175 9.78085 23.1564C11.9874 23.5953 14.2745 23.3701 16.353 22.5091C18.4315 21.6482 20.2081 20.1902 21.458 18.3196C22.7079 16.449 23.375 14.2498 23.375 12C23.3718 8.98414 22.1724 6.09271 20.0398 3.96018C17.9073 1.82764 15.0159 0.628185 12 0.625ZM6.1025 19.6016C6.73549 18.6116 7.6075 17.7969 8.63816 17.2326C9.66882 16.6682 10.825 16.3724 12 16.3724C13.175 16.3724 14.3312 16.6682 15.3618 17.2326C16.3925 17.7969 17.2645 18.6116 17.8975 19.6016C16.2113 20.913 14.1361 21.6249 12 21.6249C9.86388 21.6249 7.78869 20.913 6.1025 19.6016ZM8.5 11.125C8.5 10.4328 8.70527 9.75608 9.08985 9.1805C9.47444 8.60493 10.0211 8.15633 10.6606 7.89142C11.3001 7.62651 12.0039 7.5572 12.6828 7.69225C13.3617 7.8273 13.9854 8.16064 14.4749 8.65013C14.9644 9.13961 15.2977 9.76325 15.4327 10.4422C15.5678 11.1211 15.4985 11.8249 15.2336 12.4644C14.9687 13.1039 14.5201 13.6506 13.9445 14.0351C13.3689 14.4197 12.6922 14.625 12 14.625C11.0717 14.625 10.1815 14.2563 9.52512 13.5999C8.86875 12.9435 8.5 12.0533 8.5 11.125ZM19.1925 18.3886C18.2166 16.9745 16.8444 15.8804 15.2484 15.2441C16.1057 14.5688 16.7313 13.6432 17.0382 12.596C17.345 11.5487 17.3179 10.4319 16.9606 9.40075C16.6033 8.36962 15.9335 7.47547 15.0445 6.84263C14.1554 6.20979 13.0913 5.86973 12 5.86973C10.9087 5.86973 9.84455 6.20979 8.9555 6.84263C8.06645 7.47547 7.3967 8.36962 7.03939 9.40075C6.68208 10.4319 6.65497 11.5487 6.96183 12.596C7.26868 13.6432 7.89426 14.5688 8.75156 15.2441C7.15558 15.8804 5.78338 16.9745 4.8075 18.3886C3.57437 17.0019 2.76839 15.2883 2.48661 13.4541C2.20483 11.62 2.45927 9.74348 3.21928 8.05058C3.9793 6.35768 5.21248 4.92057 6.77035 3.91231C8.32821 2.90404 10.1443 2.36761 12 2.36761C13.8557 2.36761 15.6718 2.90404 17.2296 3.91231C18.7875 4.92057 20.0207 6.35768 20.7807 8.05058C21.5407 9.74348 21.7952 11.62 21.5134 13.4541C21.2316 15.2883 20.4256 17.0019 19.1925 18.3886Z"
        fill="#E6E6E6" />
</svg>