<svg width="32" height="32" viewBox="0 0 32 32" fill="none" xmlns="http://www.w3.org/2000/svg">
<path d="M23.595 5.97994C21.1743 4.14472 18.171 3.24796 15.1404 3.45545C12.1097 3.66293 9.25666 4.96064 7.10865 7.10865C4.96064 9.25666 3.66293 12.1097 3.45545 15.1404C3.24796 18.171 4.14472 21.1743 5.97994 23.595L23.595 5.97994ZM26.0178 8.40496L8.40496 26.0201C10.8257 27.8553 13.829 28.752 16.8596 28.5446C19.8903 28.3371 22.7433 27.0394 24.8914 24.8914C27.0394 22.7433 28.3371 19.8903 28.5446 16.8596C28.752 13.829 27.853 10.8257 26.0178 8.40496ZM4.68629 4.68629C7.68687 1.68571 11.7565 0 16 0C20.2435 0 24.3131 1.68571 27.3137 4.68629C30.3143 7.68687 32 11.7565 32 16C32 20.2435 30.3143 24.3131 27.3137 27.3137C24.3131 30.3143 20.2435 32 16 32C11.7565 32 7.68687 30.3143 4.68629 27.3137C1.68571 24.3131 3.16163e-08 20.2435 0 16C-3.16163e-08 11.7565 1.68571 7.68687 4.68629 4.68629Z" fill="#A12B2B"/>
</svg>
