<svg width="24" height="18" viewBox="0 0 24 18" fill="none" xmlns="http://www.w3.org/2000/svg">
    <path
        d="M20.3175 1.49315C18.7615 0.790013 17.1193 0.288452 15.4321 0.00102518C15.4168 -0.00150766 15.4011 0.000679868 15.3871 0.00728706C15.3732 0.0138943 15.3616 0.0245966 15.3541 0.0379225C15.1426 0.406896 14.9086 0.889512 14.7451 1.26734C12.9265 0.996014 11.0767 0.996014 9.25816 1.26734C9.07654 0.846098 8.8702 0.4356 8.64016 0.0379225C8.63263 0.0245966 8.62109 0.0138943 8.60712 0.00728706C8.59315 0.000679868 8.57745 -0.00150766 8.56216 0.00102518C6.87468 0.287348 5.2322 0.789152 3.67671 1.49315C3.66334 1.49804 3.65217 1.50746 3.64522 1.51972C0.534248 6.09351 -0.319243 10.5551 0.0992523 14.9607C0.102252 14.9823 0.112752 15.0005 0.130752 15.0153C1.94269 16.3351 3.96886 17.3431 6.12319 17.9966C6.1384 18.0013 6.15475 18.0011 6.16985 17.9961C6.18496 17.991 6.19804 17.9814 6.20719 17.9685C6.67018 17.3487 7.07918 16.6948 7.43418 16.0071C7.44155 15.9929 7.44408 15.9768 7.44138 15.9611C7.43867 15.9454 7.43089 15.931 7.41918 15.92L7.39218 15.9038C6.74622 15.6587 6.12038 15.3651 5.5202 15.0256C5.50344 15.0163 5.49098 15.0009 5.4854 14.9828C5.47981 14.9647 5.48153 14.9451 5.4902 14.9282L5.5127 14.9002C5.63969 14.8067 5.76369 14.7108 5.88469 14.6124C5.89529 14.604 5.90801 14.5986 5.92149 14.5968C5.93496 14.5949 5.94869 14.5968 5.96119 14.602C9.88965 16.3672 14.1421 16.3672 18.0226 14.602C18.0355 14.5962 18.0498 14.594 18.0638 14.5959C18.0779 14.5977 18.0912 14.6034 18.1021 14.6124C18.2231 14.7108 18.3471 14.8067 18.4741 14.9002C18.4846 14.9073 18.4932 14.9169 18.4988 14.9282C18.5045 14.9394 18.5072 14.952 18.5066 14.9645C18.506 14.9771 18.5022 14.9893 18.4954 15C18.4887 15.0107 18.4792 15.0195 18.4681 15.0256C17.8705 15.3705 17.2436 15.6638 16.5946 15.9023C16.5842 15.906 16.5748 15.9118 16.5671 15.9195C16.5593 15.9271 16.5533 15.9364 16.5496 15.9466C16.5459 15.9564 16.5444 15.9669 16.5452 15.9773C16.546 15.9877 16.549 15.9979 16.5541 16.0071C16.9141 16.6934 17.3266 17.3487 17.7796 17.9685C17.7887 17.9814 17.8018 17.991 17.8169 17.9961C17.832 18.0011 17.8484 18.0013 17.8636 17.9966C20.0221 17.3467 22.0519 16.3384 23.865 15.0153C23.874 15.009 23.8815 15.0009 23.887 14.9914C23.8924 14.982 23.8957 14.9715 23.8965 14.9607C24.3975 9.86736 23.058 5.44264 20.3475 1.52119C20.3452 1.5145 20.3412 1.50846 20.336 1.50358C20.3308 1.4987 20.3245 1.49512 20.3175 1.49315ZM8.02067 12.2775C6.83718 12.2775 5.86369 11.209 5.86369 9.89836C5.86369 8.58777 6.81918 7.51774 8.02067 7.51774C9.23116 7.51774 10.1956 8.59515 10.1776 9.89836C10.1776 11.209 9.22216 12.2775 8.02067 12.2775ZM15.9946 12.2775C14.8126 12.2775 13.8376 11.209 13.8376 9.89836C13.8376 8.58777 14.7931 7.51774 15.9946 7.51774C17.2051 7.51774 18.1711 8.59515 18.1516 9.89836C18.1516 11.209 17.2051 12.2775 15.9946 12.2775Z"
        fill="#7289D9" />
</svg>