<svg width="28" height="28" viewBox="0 0 28 28" fill="none" xmlns="http://www.w3.org/2000/svg">
<path d="M3.79134 14C3.79134 8.36206 8.36176 3.79165 13.9997 3.79165C19.6376 3.79165 24.208 8.36206 24.208 14V16.3333H21.1455C20.743 16.3333 20.4163 16.66 20.4163 17.0625V24.9375C20.4163 25.34 20.743 25.6666 21.1455 25.6666H22.3122C23.2018 25.6666 24.0549 25.3133 24.6839 24.6842C25.313 24.0552 25.6663 23.2021 25.6663 22.3125V14C25.6663 7.55648 20.4432 2.33331 13.9997 2.33331C7.55617 2.33331 2.33301 7.55648 2.33301 14V22.3125C2.33301 23.2021 2.68639 24.0552 3.31542 24.6842C3.94445 25.3133 4.79759 25.6666 5.68717 25.6666H6.85384C7.25634 25.6666 7.58301 25.34 7.58301 24.9375V17.0625C7.58301 16.66 7.25634 16.3333 6.85384 16.3333H3.79134V14ZM13.2705 13.5625V26.1041C13.2705 26.2975 13.3473 26.483 13.4841 26.6197C13.6208 26.7565 13.8063 26.8333 13.9997 26.8333C14.1931 26.8333 14.3785 26.7565 14.5153 26.6197C14.652 26.483 14.7288 26.2975 14.7288 26.1041V13.5625C14.7288 13.3691 14.652 13.1836 14.5153 13.0469C14.3785 12.9101 14.1931 12.8333 13.9997 12.8333C13.8063 12.8333 13.6208 12.9101 13.4841 13.0469C13.3473 13.1836 13.2705 13.3691 13.2705 13.5625ZM10.6455 16.3333C11.048 16.3333 11.3747 16.66 11.3747 17.0625V22.6041C11.3747 22.7975 11.2979 22.983 11.1611 23.1197C11.0244 23.2565 10.8389 23.3333 10.6455 23.3333C10.4521 23.3333 10.2667 23.2565 10.1299 23.1197C9.99316 22.983 9.91634 22.7975 9.91634 22.6041V17.0625C9.91634 16.66 10.243 16.3333 10.6455 16.3333ZM18.083 17.0625C18.083 16.8691 18.0062 16.6836 17.8694 16.5469C17.7327 16.4101 17.5472 16.3333 17.3538 16.3333C17.1605 16.3333 16.975 16.4101 16.8382 16.5469C16.7015 16.6836 16.6247 16.8691 16.6247 17.0625V22.6041C16.6247 22.7975 16.7015 22.983 16.8382 23.1197C16.975 23.2565 17.1605 23.3333 17.3538 23.3333C17.5472 23.3333 17.7327 23.2565 17.8694 23.1197C18.0062 22.983 18.083 22.7975 18.083 22.6041V17.0625Z" fill="white"/>
</svg>
