<svg width="28" height="28" viewBox="0 0 28 28" fill="none" xmlns="http://www.w3.org/2000/svg">
<path d="M6.9998 5.59998C5.8859 5.59998 4.81761 6.04247 4.02996 6.83013C3.2423 7.61778 2.7998 8.68607 2.7998 9.79998V18.2C2.7998 19.3139 3.2423 20.3822 4.02996 21.1698C4.81761 21.9575 5.8859 22.4 6.9998 22.4H20.9998C22.1137 22.4 23.182 21.9575 23.9697 21.1698C24.7573 20.3822 25.1998 19.3139 25.1998 18.2V9.79998C25.1998 8.68607 24.7573 7.61778 23.9697 6.83013C23.182 6.04247 22.1137 5.59998 20.9998 5.59998H6.9998ZM21.6998 8.39998C21.8855 8.39998 22.0635 8.47373 22.1948 8.605C22.3261 8.73628 22.3998 8.91432 22.3998 9.09998V10.5C22.3998 10.6856 22.3261 10.8637 22.1948 10.995C22.0635 11.1262 21.8855 11.2 21.6998 11.2C21.5142 11.2 21.3361 11.1262 21.2048 10.995C21.0736 10.8637 20.9998 10.6856 20.9998 10.5V9.09998C20.9998 8.91432 21.0736 8.73628 21.2048 8.605C21.3361 8.47373 21.5142 8.39998 21.6998 8.39998ZM20.9998 17.5C20.9998 17.3143 21.0736 17.1363 21.2048 17.005C21.3361 16.8737 21.5142 16.8 21.6998 16.8C21.8855 16.8 22.0635 16.8737 22.1948 17.005C22.3261 17.1363 22.3998 17.3143 22.3998 17.5V18.9C22.3998 19.0856 22.3261 19.2637 22.1948 19.395C22.0635 19.5262 21.8855 19.6 21.6998 19.6C21.5142 19.6 21.3361 19.5262 21.2048 19.395C21.0736 19.2637 20.9998 19.0856 20.9998 18.9V17.5ZM21.6998 12.6C21.8855 12.6 22.0635 12.6737 22.1948 12.805C22.3261 12.9363 22.3998 13.1143 22.3998 13.3V14.7C22.3998 14.8856 22.3261 15.0637 22.1948 15.195C22.0635 15.3262 21.8855 15.4 21.6998 15.4C21.5142 15.4 21.3361 15.3262 21.2048 15.195C21.0736 15.0637 20.9998 14.8856 20.9998 14.7V13.3C20.9998 13.1143 21.0736 12.9363 21.2048 12.805C21.3361 12.6737 21.5142 12.6 21.6998 12.6ZM5.5998 9.09998C5.5998 8.91432 5.67355 8.73628 5.80483 8.605C5.93611 8.47373 6.11415 8.39998 6.2998 8.39998C6.48546 8.39998 6.6635 8.47373 6.79478 8.605C6.92605 8.73628 6.9998 8.91432 6.9998 9.09998V10.5C6.9998 10.6856 6.92605 10.8637 6.79478 10.995C6.6635 11.1262 6.48546 11.2 6.2998 11.2C6.11415 11.2 5.93611 11.1262 5.80483 10.995C5.67355 10.8637 5.5998 10.6856 5.5998 10.5V9.09998ZM6.2998 16.8C6.48546 16.8 6.6635 16.8737 6.79478 17.005C6.92605 17.1363 6.9998 17.3143 6.9998 17.5V18.9C6.9998 19.0856 6.92605 19.2637 6.79478 19.395C6.6635 19.5262 6.48546 19.6 6.2998 19.6C6.11415 19.6 5.93611 19.5262 5.80483 19.395C5.67355 19.2637 5.5998 19.0856 5.5998 18.9V17.5C5.5998 17.3143 5.67355 17.1363 5.80483 17.005C5.93611 16.8737 6.11415 16.8 6.2998 16.8ZM5.5998 13.3C5.5998 13.1143 5.67355 12.9363 5.80483 12.805C5.93611 12.6737 6.11415 12.6 6.2998 12.6C6.48546 12.6 6.6635 12.6737 6.79478 12.805C6.92605 12.9363 6.9998 13.1143 6.9998 13.3V14.7C6.9998 14.8856 6.92605 15.0637 6.79478 15.195C6.6635 15.3262 6.48546 15.4 6.2998 15.4C6.11415 15.4 5.93611 15.3262 5.80483 15.195C5.67355 15.0637 5.5998 14.8856 5.5998 14.7V13.3ZM11.1998 11.3764C11.1998 10.7002 11.8438 10.2802 12.359 10.6204L16.475 13.3546C16.909 13.643 16.909 14.357 16.475 14.6454L12.359 17.3796C11.8452 17.7198 11.1998 17.2998 11.1998 16.6236V11.3764Z" fill="white"/>
</svg>
