<svg width="22" height="22" viewBox="0 0 22 22" fill="none" xmlns="http://www.w3.org/2000/svg">
<path d="M7.5 1.66667C7.5 1.35725 7.37708 1.0605 7.15829 0.841709C6.9395 0.622916 6.64275 0.5 6.33333 0.5C6.02391 0.5 5.72717 0.622916 5.50838 0.841709C5.28958 1.0605 5.16667 1.35725 5.16667 1.66667V4.58333C5.16667 4.73804 5.10521 4.88642 4.99581 4.99581C4.88642 5.10521 4.73804 5.16667 4.58333 5.16667H1.66667C1.35725 5.16667 1.0605 5.28958 0.841709 5.50838C0.622916 5.72717 0.5 6.02391 0.5 6.33333C0.5 6.64275 0.622916 6.9395 0.841709 7.15829C1.0605 7.37708 1.35725 7.5 1.66667 7.5H4.58333C5.35688 7.5 6.09875 7.19271 6.64573 6.64573C7.19271 6.09875 7.5 5.35688 7.5 4.58333V1.66667ZM7.5 20.3333C7.5 20.6428 7.37708 20.9395 7.15829 21.1583C6.9395 21.3771 6.64275 21.5 6.33333 21.5C6.02391 21.5 5.72717 21.3771 5.50838 21.1583C5.28958 20.9395 5.16667 20.6428 5.16667 20.3333V17.4167C5.16667 17.262 5.10521 17.1136 4.99581 17.0042C4.88642 16.8948 4.73804 16.8333 4.58333 16.8333H1.66667C1.35725 16.8333 1.0605 16.7104 0.841709 16.4916C0.622916 16.2728 0.5 15.9761 0.5 15.6667C0.5 15.3572 0.622916 15.0605 0.841709 14.8417C1.0605 14.6229 1.35725 14.5 1.66667 14.5H4.58333C5.35688 14.5 6.09875 14.8073 6.64573 15.3543C7.19271 15.9013 7.5 16.6431 7.5 17.4167V20.3333ZM15.6667 0.5C15.3572 0.5 15.0605 0.622916 14.8417 0.841709C14.6229 1.0605 14.5 1.35725 14.5 1.66667V4.58333C14.5 5.35688 14.8073 6.09875 15.3543 6.64573C15.9013 7.19271 16.6431 7.5 17.4167 7.5H20.3333C20.6428 7.5 20.9395 7.37708 21.1583 7.15829C21.3771 6.9395 21.5 6.64275 21.5 6.33333C21.5 6.02391 21.3771 5.72717 21.1583 5.50838C20.9395 5.28958 20.6428 5.16667 20.3333 5.16667H17.4167C17.262 5.16667 17.1136 5.10521 17.0042 4.99581C16.8948 4.88642 16.8333 4.73804 16.8333 4.58333V1.66667C16.8333 1.35725 16.7104 1.0605 16.4916 0.841709C16.2728 0.622916 15.9761 0.5 15.6667 0.5ZM14.5 20.3333C14.5 20.6428 14.6229 20.9395 14.8417 21.1583C15.0605 21.3771 15.3572 21.5 15.6667 21.5C15.9761 21.5 16.2728 21.3771 16.4916 21.1583C16.7104 20.9395 16.8333 20.6428 16.8333 20.3333V17.4167C16.8333 17.262 16.8948 17.1136 17.0042 17.0042C17.1136 16.8948 17.262 16.8333 17.4167 16.8333H20.3333C20.6428 16.8333 20.9395 16.7104 21.1583 16.4916C21.3771 16.2728 21.5 15.9761 21.5 15.6667C21.5 15.3572 21.3771 15.0605 21.1583 14.8417C20.9395 14.6229 20.6428 14.5 20.3333 14.5H17.4167C16.6431 14.5 15.9013 14.8073 15.3543 15.3543C14.8073 15.9013 14.5 16.6431 14.5 17.4167V20.3333Z" fill="#E6E6E6"/>
</svg>
