<svg width="39" height="39" viewBox="0 0 39 39" fill="none" xmlns="http://www.w3.org/2000/svg">
    <path
        d="M29.0626 13.125C29.908 13.125 30.7187 12.7892 31.3165 12.1914C31.9143 11.5936 32.2501 10.7829 32.2501 9.9375C32.2501 9.09213 31.9143 8.28137 31.3165 7.6836C30.7187 7.08583 29.908 6.75 29.0626 6.75C28.2172 6.75 27.4065 7.08583 26.8087 7.6836C26.2109 8.28137 25.8751 9.09213 25.8751 9.9375C25.8751 10.7829 26.2109 11.5936 26.8087 12.1914C27.4065 12.7892 28.2172 13.125 29.0626 13.125ZM2.24616 26.3085C1.65346 25.719 1.18311 25.0182 0.862155 24.2464C0.541202 23.4745 0.375977 22.6469 0.375977 21.8109C0.375977 20.975 0.541202 20.1473 0.862155 19.3755C1.18311 18.6036 1.65346 17.9028 2.24616 17.3134L17.3549 2.28113C18.5481 1.09096 20.164 0.421674 21.8493 0.419629L32.2055 0.375004C33.0491 0.369088 33.8855 0.530674 34.6662 0.850396C35.4469 1.17012 36.1564 1.64162 36.7535 2.23756C37.3506 2.83351 37.8235 3.54205 38.1448 4.32212C38.4661 5.10218 38.6293 5.93826 38.6251 6.78188L38.5486 17.5014C38.5314 19.1731 37.8584 20.7711 36.6744 21.9512L21.7887 36.7635C20.5882 37.9577 18.9638 38.628 17.2704 38.628C15.5771 38.628 13.9527 37.9577 12.7522 36.7635L2.24616 26.3085ZM4.5061 19.5638C4.20985 19.8582 3.97474 20.2083 3.8143 20.594C3.65387 20.9797 3.57128 21.3932 3.57128 21.8109C3.57128 22.2286 3.65387 22.6422 3.8143 23.0279C3.97474 23.4135 4.20985 23.7637 4.5061 24.0581L15.0121 34.5131C16.2616 35.7563 18.2825 35.7563 19.532 34.5131L34.4176 19.7008C35.0084 19.1102 35.3438 18.3113 35.3515 17.4759L35.428 6.75638C35.4297 6.3351 35.3479 5.91767 35.1873 5.52822C35.0266 5.13877 34.7904 4.78502 34.4922 4.48743C34.194 4.18984 33.8398 3.95431 33.4501 3.79445C33.0603 3.6346 32.6427 3.5536 32.2214 3.55613L21.862 3.59757C21.0194 3.59859 20.2114 3.93323 19.6149 4.52832L4.5061 19.5638Z"
        fill="#E6E6E6" />
</svg>