<svg width="28" height="28" viewBox="0 0 28 28" fill="none" xmlns="http://www.w3.org/2000/svg">
<path d="M17.0628 7H17.9658C18.8259 7.00138 19.6773 7.17226 20.4713 7.50289C21.2653 7.83352 21.9864 8.31741 22.5932 8.92688C23.2001 9.53636 23.6809 10.2595 24.0081 11.0549C24.3354 11.8503 24.5026 12.7024 24.5003 13.5625C24.5003 17.0677 21.7616 19.9342 18.3228 20.1162L17.9781 20.125L17.0751 20.1337C16.7403 20.1399 16.4159 20.0178 16.1682 19.7926C15.9205 19.5674 15.7682 19.2561 15.7425 18.9223C15.7168 18.5885 15.8196 18.2575 16.0299 17.997C16.2402 17.7365 16.5421 17.5662 16.8738 17.521L17.0506 17.5087L17.9658 17.5C18.4812 17.4986 18.9912 17.3956 19.4668 17.1969C19.9423 16.9982 20.374 16.7077 20.7371 16.342C21.1002 15.9762 21.3877 15.5425 21.583 15.0656C21.7783 14.5886 21.8776 14.0779 21.8753 13.5625C21.8753 11.4765 20.2653 9.772 18.2336 9.63375L17.9658 9.625H17.0628C16.7303 9.6249 16.4102 9.49857 16.1672 9.27155C15.9242 9.04452 15.7764 8.73373 15.7538 8.40196C15.7311 8.07019 15.8352 7.74219 16.0451 7.48423C16.2549 7.22626 16.5549 7.05758 16.8843 7.01225L17.0628 7ZM10.0663 7H10.9378C11.2704 7.0001 11.5905 7.12643 11.8335 7.35345C12.0764 7.58048 12.2242 7.89127 12.2469 8.22304C12.2695 8.55481 12.1654 8.88281 11.9556 9.14077C11.7457 9.39874 11.4458 9.56742 11.1163 9.61275L10.9378 9.625H10.0663C9.03796 9.61514 8.04647 10.0077 7.30353 10.7188C6.56059 11.4299 6.12504 12.4032 6.08986 13.431C6.05469 14.4588 6.42268 15.4597 7.11527 16.2199C7.80786 16.9801 8.77019 17.4395 9.79682 17.5L10.0663 17.5087H10.9378C11.2704 17.5089 11.5905 17.6352 11.8335 17.8622C12.0764 18.0892 12.2242 18.4 12.2469 18.7318C12.2695 19.0636 12.1654 19.3916 11.9556 19.6495C11.7457 19.9075 11.4458 20.0762 11.1163 20.1215L10.9378 20.1337H10.0663C8.34661 20.1466 6.69049 19.4843 5.45394 18.2891C4.21738 17.0939 3.4991 15.4612 3.45348 13.7421C3.40787 12.0229 4.03856 10.3545 5.21 9.09542C6.38143 7.83633 8.0001 7.08709 9.71807 7.00875L10.0663 7ZM10.0628 12.25H17.9378C18.2704 12.2501 18.5905 12.3764 18.8335 12.6035C19.0764 12.8305 19.2242 13.1413 19.2469 13.473C19.2695 13.8048 19.1654 14.1328 18.9556 14.3908C18.7457 14.6487 18.4458 14.8174 18.1163 14.8627L17.9378 14.875H10.0628C9.73028 14.8749 9.41018 14.7486 9.16719 14.5215C8.9242 14.2945 8.77644 13.9837 8.75378 13.652C8.73111 13.3202 8.83522 12.9922 9.04508 12.7342C9.25493 12.4763 9.55488 12.3076 9.88432 12.2622L10.0628 12.25Z" fill="white"/>
</svg>
