<svg width="12" height="12" viewBox="0 0 12 12" fill="none" xmlns="http://www.w3.org/2000/svg">
<path d="M0 1.16887C0 0.230278 1.052 -0.324342 1.82667 0.20628L8.82533 5.00188C8.98109 5.10863 9.10861 5.2516 9.19693 5.41849C9.28524 5.58539 9.33173 5.77123 9.33238 5.96005C9.33304 6.14887 9.28785 6.33502 9.20069 6.50253C9.11353 6.67003 8.98701 6.81388 8.832 6.92172L1.83267 11.7893C1.06 12.3273 0 11.7726 0 10.8314V1.16887ZM12 0.500255C12 0.367658 11.9473 0.240492 11.8536 0.146732C11.7598 0.0529712 11.6326 0.000297305 11.5 0.000297305C11.3674 0.000297305 11.2402 0.0529712 11.1464 0.146732C11.0527 0.240492 11 0.367658 11 0.500255V11.4993C11 11.6319 11.0527 11.7591 11.1464 11.8529C11.2402 11.9466 11.3674 11.9993 11.5 11.9993C11.6326 11.9993 11.7598 11.9466 11.8536 11.8529C11.9473 11.7591 12 11.6319 12 11.4993V0.500255Z" fill="white"/>
</svg>
