<svg width="31" height="31" viewBox="0 0 31 31" fill="none" xmlns="http://www.w3.org/2000/svg">
<path d="M6.78125 3.875C5.49661 3.875 4.26458 4.38532 3.3562 5.2937C2.44782 6.20208 1.9375 7.43411 1.9375 8.71875V18.4062C1.9375 19.0423 2.06279 19.6722 2.30621 20.2599C2.54963 20.8475 2.90642 21.3815 3.3562 21.8313C4.26458 22.7397 5.49661 23.25 6.78125 23.25H13.5625V21.3125H6.78125C6.01046 21.3125 5.27125 21.0063 4.72622 20.4613C4.18119 19.9163 3.875 19.177 3.875 18.4062V8.71875C3.875 7.94796 4.18119 7.20875 4.72622 6.66372C5.27125 6.11869 6.01046 5.8125 6.78125 5.8125H22.2812C23.052 5.8125 23.7913 6.11869 24.3363 6.66372C24.8813 7.20875 25.1875 7.94796 25.1875 8.71875V15.5H27.125V8.71875C27.125 7.43411 26.6147 6.20208 25.7063 5.2937C24.7979 4.38532 23.5659 3.875 22.2812 3.875H6.78125ZM8.43587 9.00163C8.25397 8.81972 8.00725 8.71753 7.75 8.71753C7.49275 8.71753 7.24603 8.81972 7.06413 9.00163C6.88222 9.18353 6.78003 9.43025 6.78003 9.6875C6.78003 9.81488 6.80512 9.94101 6.85386 10.0587C6.90261 10.1764 6.97405 10.2833 7.06413 10.3734L10.2552 13.5625H8.71875C8.46182 13.5625 8.21542 13.6646 8.03374 13.8462C7.85206 14.0279 7.75 14.2743 7.75 14.5312C7.75 14.7882 7.85206 15.0346 8.03374 15.2163C8.21542 15.3979 8.46182 15.5 8.71875 15.5H12.5938C12.8483 15.5 13.0926 15.3997 13.2738 15.221L13.2835 15.2113C13.4622 15.0301 13.5625 14.7858 13.5625 14.5312V10.6562C13.5625 10.3993 13.4604 10.1529 13.2788 9.97124C13.0971 9.78956 12.8507 9.6875 12.5938 9.6875C12.3368 9.6875 12.0904 9.78956 11.9087 9.97124C11.7271 10.1529 11.625 10.3993 11.625 10.6562V12.1927L8.43587 9.00163ZM17.4375 17.4375C16.9236 17.4375 16.4308 17.6416 16.0675 18.005C15.7041 18.3683 15.5 18.8611 15.5 19.375V25.1875C15.5 25.7014 15.7041 26.1942 16.0675 26.5575C16.4308 26.9209 16.9236 27.125 17.4375 27.125H27.125C27.6389 27.125 28.1317 26.9209 28.495 26.5575C28.8584 26.1942 29.0625 25.7014 29.0625 25.1875V19.375C29.0625 18.8611 28.8584 18.3683 28.495 18.005C28.1317 17.6416 27.6389 17.4375 27.125 17.4375H17.4375Z" fill="white"/>
</svg>
