<svg width="28" height="28" viewBox="0 0 28 28" fill="none" xmlns="http://www.w3.org/2000/svg">
<path d="M16.563 2.31749C15.66 2.11706 14.7385 2.01065 13.8133 2C12.8667 2.01089 11.9419 2.11672 11.0391 2.31749C10.8461 2.35996 10.6714 2.46163 10.5396 2.60815C10.4078 2.75468 10.3256 2.93867 10.3044 3.13418L10.09 5.05033C10.0593 5.3206 9.96538 5.57996 9.81584 5.80765C9.6663 6.03534 9.46527 6.22504 9.22884 6.36157C8.99241 6.49809 8.72714 6.57766 8.45426 6.59389C8.18139 6.61012 7.90848 6.56257 7.65739 6.45504L5.89268 5.68225C5.71356 5.60378 5.51436 5.58266 5.32264 5.6218C5.13092 5.66094 4.95617 5.75841 4.82257 5.90071C3.54632 7.25956 2.59607 8.88845 2.04316 10.6651C1.98429 10.8521 1.98568 11.0527 2.04712 11.2389C2.10857 11.425 2.22701 11.5874 2.38584 11.7033L3.95253 12.8518C4.17309 13.013 4.35242 13.2236 4.47602 13.4666C4.59962 13.7095 4.66403 13.978 4.66403 14.2503C4.66403 14.5227 4.59962 14.7911 4.47602 15.0341C4.35242 15.2771 4.17309 15.4877 3.95253 15.6489L2.38584 16.8004C2.22721 16.9162 2.10891 17.0784 2.04747 17.2644C1.98603 17.4504 1.98452 17.6508 2.04316 17.8376C2.59607 19.6153 3.54549 21.2457 4.82052 22.6071C4.954 22.7496 5.12869 22.8472 5.32041 22.8866C5.51214 22.9259 5.71141 22.9049 5.89063 22.8266L7.66354 22.0518C7.91329 21.9438 8.18497 21.8955 8.45685 21.9107C8.72873 21.926 8.99324 22.0043 9.22921 22.1396C9.70732 22.4152 10.0264 22.9001 10.089 23.4473L10.3024 25.3634C10.3234 25.5563 10.4039 25.738 10.5329 25.8835C10.6618 26.029 10.8329 26.1312 11.0226 26.176C12.8484 26.608 14.7506 26.608 16.5763 26.176C16.766 26.1312 16.9371 26.029 17.0661 25.8835C17.1951 25.738 17.2756 25.5563 17.2966 25.3634L17.51 23.4442C17.5389 23.1738 17.6316 22.914 17.7805 22.6859C17.9294 22.4578 18.1303 22.2679 18.3668 22.1316C18.6034 21.9953 18.8689 21.9165 19.1418 21.9016C19.4147 21.8866 19.6873 21.936 19.9375 22.0456L21.7094 22.8205C21.8886 22.8988 22.0879 22.9198 22.2796 22.8804C22.4713 22.8411 22.646 22.7435 22.7795 22.601C24.0538 21.2411 25.0032 19.6125 25.5568 17.8366C25.6157 17.6496 25.6143 17.449 25.5529 17.2628C25.4914 17.0766 25.373 16.9143 25.2142 16.7984L23.6495 15.6489C23.4289 15.4878 23.2495 15.2772 23.1258 15.0343C23.0021 14.7914 22.9376 14.5229 22.9375 14.2506C22.9374 13.9783 23.0017 13.7098 23.1252 13.4668C23.2487 13.2237 23.428 13.0131 23.6485 12.8518L25.2131 11.7012C25.3716 11.5853 25.4897 11.4231 25.5509 11.2371C25.6122 11.0511 25.6135 10.8508 25.5548 10.6641C25.0022 8.88752 24.0523 7.25864 22.7764 5.89969C22.6428 5.75739 22.4681 5.65992 22.2763 5.62078C22.0846 5.58164 21.8854 5.60276 21.7063 5.68123L19.9416 6.45402C19.7217 6.55031 19.4842 6.60035 19.2439 6.60102C18.8141 6.60046 18.3995 6.44198 18.0799 6.15598C17.7603 5.86998 17.5581 5.47661 17.512 5.05135L17.2966 3.13316C17.2754 2.9381 17.1934 2.75454 17.062 2.60825C16.9306 2.46196 16.7554 2.36028 16.563 2.31749ZM13.8 18.3338C12.7116 18.3338 11.6677 17.9036 10.8981 17.1378C10.1284 16.372 9.69603 15.3333 9.69603 14.2503C9.69603 13.1673 10.1284 12.1287 10.8981 11.3629C11.6677 10.5971 12.7116 10.1669 13.8 10.1669C14.8884 10.1669 15.9323 10.5971 16.7019 11.3629C17.4716 12.1287 17.904 13.1673 17.904 14.2503C17.904 15.3333 17.4716 16.372 16.7019 17.1378C15.9323 17.9036 14.8884 18.3338 13.8 18.3338Z" fill="white"/>
</svg>
