<svg width="28" height="28" viewBox="0 0 28 28" fill="none" xmlns="http://www.w3.org/2000/svg">
<path d="M18.1737 14.25C18.1737 15.4103 17.7127 16.5231 16.8922 17.3436C16.0718 18.1641 14.959 18.625 13.7987 18.625C12.6383 18.625 11.5255 18.1641 10.7051 17.3436C9.88459 16.5231 9.42366 15.4103 9.42366 14.25C9.42366 13.0897 9.88459 11.9769 10.7051 11.1564C11.5255 10.3359 12.6383 9.87501 13.7987 9.87501C14.959 9.87501 16.0718 10.3359 16.8922 11.1564C17.7127 11.9769 18.1737 13.0897 18.1737 14.25ZM17.2987 14.25C17.2987 13.3217 16.9299 12.4315 16.2735 11.7751C15.6172 11.1188 14.7269 10.75 13.7987 10.75C12.8704 10.75 11.9802 11.1188 11.3238 11.7751C10.6674 12.4315 10.2987 13.3217 10.2987 14.25C10.2987 15.1783 10.6674 16.0685 11.3238 16.7249C11.9802 17.3813 12.8704 17.75 13.7987 17.75C14.7269 17.75 15.6172 17.3813 16.2735 16.7249C16.9299 16.0685 17.2987 15.1783 17.2987 14.25ZM4.96116 5.76601C5.0836 5.64192 5.24161 5.559 5.41328 5.52874C5.58496 5.49848 5.7618 5.52238 5.91928 5.59713L7.49428 6.32338C7.74274 6.43808 8.01464 6.49292 8.28813 6.48348C8.56162 6.47404 8.82909 6.4006 9.06905 6.26905C9.30901 6.13749 9.51478 5.9515 9.66982 5.726C9.82486 5.5005 9.92486 5.24178 9.96178 4.97063L10.2217 3.06663C10.2426 2.90007 10.313 2.74361 10.4237 2.61743C10.5345 2.49126 10.6805 2.40116 10.8429 2.35876C11.8096 2.11951 12.8019 1.99903 13.7978 2.00001C14.8172 2.00001 15.8068 2.12426 16.7535 2.35876C16.916 2.40116 17.062 2.49126 17.1727 2.61743C17.2834 2.74361 17.3538 2.90007 17.3748 3.06663L17.6347 4.97063C17.6716 5.24167 17.7716 5.50027 17.9266 5.72567C18.0816 5.95107 18.2873 6.137 18.5271 6.26854C18.767 6.40008 19.0343 6.47356 19.3077 6.48308C19.5811 6.4926 19.8529 6.43791 20.1013 6.32338L21.6763 5.59713C21.8338 5.52238 22.0106 5.49848 22.1823 5.52874C22.354 5.559 22.512 5.64192 22.6344 5.76601C24.0071 7.19433 25.0129 8.93427 25.5657 10.8366C25.6118 11.0049 25.6044 11.1833 25.5445 11.3472C25.4846 11.511 25.3752 11.6522 25.2314 11.751L23.7124 12.8185C23.4826 12.98 23.295 13.1944 23.1655 13.4436C23.036 13.6928 22.9684 13.9696 22.9684 14.2504C22.9684 14.5313 23.036 14.8081 23.1655 15.0573C23.295 15.3065 23.4826 15.5209 23.7124 15.6824L25.2314 16.7499C25.375 16.8487 25.4843 16.9896 25.5442 17.1533C25.6041 17.317 25.6116 17.4953 25.5657 17.6634C25.0129 19.5657 24.0071 21.3057 22.6344 22.734C22.512 22.8579 22.3542 22.9407 22.1827 22.971C22.0112 23.0012 21.8345 22.9774 21.6772 22.9029L20.1004 22.1766C19.852 22.0623 19.5803 22.0077 19.307 22.0173C19.0338 22.0269 18.7666 22.1005 18.5268 22.232C18.2871 22.3635 18.0815 22.5494 17.9266 22.7747C17.7716 23 17.6717 23.2585 17.6347 23.5294L17.3748 25.4334C17.3538 25.5999 17.2834 25.7564 17.1727 25.8826C17.062 26.0088 16.916 26.0989 16.7535 26.1413C15.7865 26.3806 14.794 26.501 13.7978 26.5C12.8016 26.501 11.809 26.3806 10.842 26.1413C10.6796 26.0989 10.5336 26.0088 10.4229 25.8826C10.3121 25.7564 10.2417 25.5999 10.2208 25.4334L9.96178 23.5294C9.92486 23.2582 9.82486 22.9995 9.66982 22.774C9.51478 22.5485 9.30901 22.3625 9.06905 22.231C8.82909 22.0994 8.56162 22.026 8.28813 22.0165C8.01464 22.0071 7.74274 22.0619 7.49428 22.1766L5.91928 22.9029C5.7618 22.9776 5.58496 23.0015 5.41328 22.9713C5.24161 22.941 5.0836 22.8581 4.96116 22.734C3.58833 21.3054 2.58249 19.5652 2.02991 17.6625C1.98377 17.4943 1.99116 17.3158 2.05106 17.152C2.11096 16.9881 2.22039 16.847 2.36416 16.7481L3.88403 15.6806C4.11385 15.5192 4.30143 15.3048 4.43093 15.0555C4.56042 14.8063 4.62802 14.5296 4.62802 14.2487C4.62802 13.9678 4.56042 13.6911 4.43093 13.4419C4.30143 13.1926 4.11385 12.9782 3.88403 12.8168L2.36416 11.7493C2.22039 11.6504 2.11096 11.5093 2.05106 11.3454C1.99116 11.1816 1.98377 11.0031 2.02991 10.8349C2.583 8.93346 3.58881 7.19359 4.96116 5.76601ZM2.88041 11.0449L4.38628 12.1028C5.87466 13.1484 5.87466 15.3534 4.38628 16.399L2.88128 17.4569C3.39329 19.1977 4.31434 20.7908 5.56753 22.1031L7.12853 21.383C7.50108 21.2113 7.90868 21.1293 8.31863 21.1436C8.72859 21.1579 9.1295 21.268 9.48919 21.4652C9.84889 21.6624 10.1574 21.9412 10.3899 22.2791C10.6224 22.6171 10.7724 23.0048 10.828 23.4113L11.0862 25.3013C11.9542 25.513 12.8624 25.6259 13.7987 25.6259C14.712 25.6269 15.6221 25.5179 16.5094 25.3013L16.7675 23.4113C16.8231 23.0048 16.9732 22.6171 17.2057 22.2791C17.4382 21.9412 17.7467 21.6624 18.1064 21.4652C18.4661 21.268 18.867 21.1579 19.2769 21.1436C19.6869 21.1293 20.0945 21.2113 20.467 21.383L22.0289 22.1023C23.2821 20.7899 24.2031 19.1968 24.7152 17.456L23.2102 16.399C22.8653 16.1568 22.5839 15.8352 22.3896 15.4613C22.1953 15.0874 22.0939 14.6722 22.0939 14.2509C22.0939 13.8295 22.1953 13.4143 22.3896 13.0405C22.5839 12.6666 22.8653 12.3449 23.2102 12.1028L24.7152 11.0449C24.2031 9.30404 23.2821 7.71095 22.0289 6.39863L20.467 7.11876C20.0945 7.29045 19.6869 7.37245 19.2769 7.35817C18.867 7.34389 18.4661 7.23373 18.1064 7.03652C17.7467 6.83932 17.4382 6.56056 17.2057 6.22262C16.9732 5.88467 16.8231 5.49693 16.7675 5.09051L16.5094 3.20051C15.6219 2.9835 14.7114 2.87421 13.7978 2.87501C12.8624 2.87501 11.9542 2.98788 11.0862 3.19963L10.828 5.08963C10.7724 5.49605 10.6224 5.88379 10.3899 6.22174C10.1574 6.55969 9.84889 6.83845 9.48919 7.03565C9.1295 7.23285 8.72859 7.34301 8.31863 7.35729C7.90868 7.37157 7.50108 7.28958 7.12853 7.11788L5.56753 6.39863C4.31434 7.71095 3.39242 9.30404 2.88041 11.0449Z" fill="white"/>
</svg>
