<svg width="20" height="20" viewBox="0 0 20 20" fill="none" xmlns="http://www.w3.org/2000/svg">
<path d="M3.08606 7.968C4.20406 6.568 6.06806 4.892 8.34606 4.396C10.2531 3.981 12.5961 4.363 15.2131 6.75H12.5001C12.3011 6.75 12.1104 6.82902 11.9697 6.96967C11.8291 7.11032 11.7501 7.30109 11.7501 7.5C11.7501 7.69891 11.8291 7.88968 11.9697 8.03033C12.1104 8.17098 12.3011 8.25 12.5001 8.25H17.0001C17.199 8.25 17.3897 8.17098 17.5304 8.03033C17.671 7.88968 17.7501 7.69891 17.7501 7.5V3.5C17.7501 3.30109 17.671 3.11032 17.5304 2.96967C17.3897 2.82902 17.199 2.75 17.0001 2.75C16.8011 2.75 16.6104 2.82902 16.4697 2.96967C16.3291 3.11032 16.2501 3.30109 16.2501 3.5V5.667C13.3261 2.99 10.5031 2.392 8.02806 2.93C5.26606 3.531 3.13006 5.51 1.91406 7.033C1.79735 7.18904 1.74595 7.38438 1.77075 7.57766C1.79555 7.77093 1.8946 7.94697 2.04692 8.06849C2.19925 8.19001 2.39289 8.24748 2.58684 8.22872C2.7808 8.20997 2.95984 8.11646 3.08606 7.968ZM6.50006 10.751C6.03593 10.751 5.59081 10.9354 5.26262 11.2636C4.93443 11.5918 4.75006 12.0369 4.75006 12.501V15.501C4.75006 16.467 5.53406 17.251 6.50006 17.251H13.5001C13.9642 17.251 14.4093 17.0666 14.7375 16.7384C15.0657 16.4102 15.2501 15.9651 15.2501 15.501V12.501C15.2501 12.0369 15.0657 11.5918 14.7375 11.2636C14.4093 10.9354 13.9642 10.751 13.5001 10.751H6.50006ZM6.25006 12.501C6.25006 12.4347 6.27639 12.3711 6.32328 12.3242C6.37016 12.2773 6.43375 12.251 6.50006 12.251H13.5001C13.5664 12.251 13.6299 12.2773 13.6768 12.3242C13.7237 12.3711 13.7501 12.4347 13.7501 12.501V15.501C13.7501 15.5673 13.7237 15.6309 13.6768 15.6778C13.6299 15.7247 13.5664 15.751 13.5001 15.751H6.50006C6.43375 15.751 6.37016 15.7247 6.32328 15.6778C6.27639 15.6309 6.25006 15.5673 6.25006 15.501V12.501Z" fill="white"/>
</svg>
