<svg width="39" height="31" viewBox="0 0 39 31" fill="none" xmlns="http://www.w3.org/2000/svg">
    <path
        d="M6.88235 7.46296C6.88235 6.09268 7.42618 4.77852 8.3942 3.80958C9.36222 2.84064 10.6751 2.2963 12.0441 2.2963C13.4131 2.2963 14.726 2.84064 15.694 3.80958C16.6621 4.77852 17.2059 6.09268 17.2059 7.46296C17.2059 8.83325 16.6621 10.1474 15.694 11.1163C14.726 12.0853 13.4131 12.6296 12.0441 12.6296C10.6751 12.6296 9.36222 12.0853 8.3942 11.1163C7.42618 10.1474 6.88235 8.83325 6.88235 7.46296ZM12.0441 0C10.0667 0 8.17026 0.786274 6.77201 2.18585C5.37376 3.58543 4.58824 5.48366 4.58824 7.46296C4.58824 9.44226 5.37376 11.3405 6.77201 12.7401C8.17026 14.1397 10.0667 14.9259 12.0441 14.9259C14.0215 14.9259 15.918 14.1397 17.3162 12.7401C18.7145 11.3405 19.5 9.44226 19.5 7.46296C19.5 5.48366 18.7145 3.58543 17.3162 2.18585C15.918 0.786274 14.0215 0 12.0441 0ZM25.0908 26.7404C26.325 27.2456 27.8781 27.5556 29.8235 27.5556C34.1388 27.5556 36.5246 26.0216 37.7818 24.2627C38.4391 23.3404 38.8505 22.2655 38.9771 21.1397C38.9883 21.0351 38.996 20.9302 39 20.8251V20.6667C39 20.2143 38.911 19.7664 38.7381 19.3485C38.5651 18.9306 38.3116 18.5509 37.9921 18.2311C37.6726 17.9112 37.2932 17.6575 36.8757 17.4844C36.4582 17.3113 36.0107 17.2222 35.5588 17.2222H24.9371C25.4876 17.8881 25.9006 18.6666 26.1415 19.5185H35.5588C35.863 19.5185 36.1548 19.6395 36.3699 19.8548C36.585 20.0701 36.7059 20.3622 36.7059 20.6667V20.7907L36.6944 20.9055C36.6083 21.634 36.34 22.329 35.9144 22.9262C35.1642 23.9802 33.5354 25.2593 29.8235 25.2593C28.1442 25.2593 26.8916 24.9975 25.9534 24.614C25.7652 25.257 25.4922 25.9826 25.0908 26.7404ZM0 21.8148C0 20.5968 0.483402 19.4286 1.34386 18.5674C2.20432 17.7061 3.37136 17.2222 4.58824 17.2222H19.5C20.7169 17.2222 21.8839 17.7061 22.7444 18.5674C23.6048 19.4286 24.0882 20.5968 24.0882 21.8148V22.0077L24.0836 22.0996L24.0607 22.4096C23.8981 23.8977 23.3701 25.3224 22.5236 26.5567C20.9155 28.8874 17.8092 31 12.0441 31C6.279 31 3.17276 28.8874 1.56459 26.559C0.717826 25.3241 0.189756 23.8985 0.0275293 22.4096C0.0144416 22.2759 0.00526132 22.1419 0 22.0077V21.8148ZM2.29412 21.9526V21.9939L2.31018 22.1845C2.43467 23.2853 2.82695 24.3386 3.45265 25.2524C4.56988 26.869 6.91218 28.7037 12.0441 28.7037C17.1761 28.7037 19.5184 26.869 20.6356 25.2524C21.2613 24.3386 21.6536 23.2853 21.7781 22.1845C21.7872 22.0973 21.7918 22.0337 21.7918 21.9939L21.7941 21.9549V21.8148C21.7941 21.2058 21.5524 20.6217 21.1222 20.1911C20.692 19.7605 20.1084 19.5185 19.5 19.5185H4.58824C3.9798 19.5185 3.39628 19.7605 2.96605 20.1911C2.53582 20.6217 2.29412 21.2058 2.29412 21.8148V21.9526ZM26.3824 9.18519C26.3824 8.27166 26.7449 7.39555 27.3903 6.74959C28.0356 6.10364 28.9109 5.74074 29.8235 5.74074C30.7362 5.74074 31.6115 6.10364 32.2568 6.74959C32.9022 7.39555 33.2647 8.27166 33.2647 9.18519C33.2647 10.0987 32.9022 10.9748 32.2568 11.6208C31.6115 12.2667 30.7362 12.6296 29.8235 12.6296C28.9109 12.6296 28.0356 12.2667 27.3903 11.6208C26.7449 10.9748 26.3824 10.0987 26.3824 9.18519ZM29.8235 3.44444C28.3024 3.44444 26.8436 4.04927 25.7681 5.12587C24.6925 6.20247 24.0882 7.66265 24.0882 9.18519C24.0882 10.7077 24.6925 12.1679 25.7681 13.2445C26.8436 14.3211 28.3024 14.9259 29.8235 14.9259C31.3446 14.9259 32.8034 14.3211 33.879 13.2445C34.9546 12.1679 35.5588 10.7077 35.5588 9.18519C35.5588 7.66265 34.9546 6.20247 33.879 5.12587C32.8034 4.04927 31.3446 3.44444 29.8235 3.44444Z"
        fill="#E6E6E6" />
</svg>