<svg width="16" height="20" viewBox="0 0 26 30" fill="none" xmlns="http://www.w3.org/2000/svg">
    <path
        d="M15.2857 2H18.8214C19.0786 3.25125 19.7857 4.82975 21.0268 6.396C22.2411 7.93075 23.8518 9 26 9V12.5C22.8696 12.5 20.5179 11.0755 18.8571 9.29925V21.25C18.8571 22.9806 18.3335 24.6723 17.3524 26.1112C16.3713 27.5502 14.9769 28.6717 13.3454 29.3339C11.7139 29.9962 9.91867 30.1695 8.1867 29.8319C6.45472 29.4942 4.8638 28.6609 3.61512 27.4372C2.36644 26.2135 1.51607 24.6544 1.17156 22.957C0.827053 21.2597 1.00387 19.5004 1.67965 17.9015C2.35543 16.3027 3.49983 14.9361 4.96813 13.9746C6.43642 13.0132 8.16267 12.5 9.92857 12.5V16C8.86903 16 7.83328 16.3079 6.9523 16.8848C6.07133 17.4617 5.38469 18.2816 4.97922 19.2409C4.57375 20.2002 4.46766 21.2558 4.67437 22.2742C4.88107 23.2926 5.39129 24.2281 6.1405 24.9623C6.88971 25.6965 7.84426 26.1965 8.88345 26.3991C9.92263 26.6017 10.9998 26.4977 11.9787 26.1004C12.9576 25.703 13.7942 25.0301 14.3829 24.1667C14.9715 23.3034 15.2857 22.2883 15.2857 21.25V2Z"
        fill="#E50F4F" />
    <path
        d="M14.2857 0H17.8214C18.0786 1.25125 18.7857 2.82975 20.0268 4.396C21.2411 5.93075 22.8518 7 25 7V10.5C21.8696 10.5 19.5179 9.0755 17.8571 7.29925V19.25C17.8571 20.9806 17.3335 22.6723 16.3524 24.1112C15.3713 25.5502 13.9769 26.6717 12.3454 27.3339C10.7139 27.9962 8.91867 28.1695 7.1867 27.8319C5.45472 27.4942 3.8638 26.6609 2.61512 25.4372C1.36644 24.2135 0.516075 22.6544 0.171564 20.957C-0.172947 19.2597 0.00386861 17.5004 0.679651 15.9015C1.35543 14.3027 2.49983 12.9361 3.96813 11.9746C5.43642 11.0132 7.16267 10.5 8.92857 10.5V14C7.86903 14 6.83328 14.3079 5.9523 14.8848C5.07133 15.4617 4.38469 16.2816 3.97922 17.2409C3.57375 18.2002 3.46766 19.2558 3.67437 20.2742C3.88107 21.2926 4.39129 22.2281 5.1405 22.9623C5.88971 23.6965 6.84426 24.1965 7.88345 24.3991C8.92263 24.6017 9.99977 24.4977 10.9787 24.1004C11.9576 23.703 12.7942 23.0301 13.3829 22.1667C13.9715 21.3034 14.2857 20.2883 14.2857 19.25V0Z"
        fill="#269FC4" />
    <path
        d="M14.75 1H18.215C18.467 2.25125 19.16 3.82975 20.3763 5.396C21.5663 6.93075 23.1448 8 25.25 8V11.5C22.1823 11.5 19.8775 10.0755 18.25 8.29925V20.25C18.25 21.9806 17.7368 23.6723 16.7754 25.1112C15.8139 26.5502 14.4473 27.6717 12.8485 28.3339C11.2496 28.9962 9.4903 29.1695 7.79296 28.8319C6.09563 28.4943 4.53653 27.6609 3.31282 26.4372C2.08911 25.2135 1.25575 23.6544 0.918133 21.957C0.580512 20.2597 0.753791 18.5004 1.41606 16.9015C2.07832 15.3027 3.19983 13.9361 4.63876 12.9746C6.07769 12.0132 7.76942 11.5 9.5 11.5V15C8.46165 15 7.44662 15.3079 6.58326 15.8848C5.7199 16.4617 5.047 17.2816 4.64964 18.2409C4.25228 19.2002 4.14831 20.2558 4.35088 21.2742C4.55345 22.2926 5.05347 23.2281 5.78769 23.9623C6.52192 24.6965 7.45738 25.1966 8.47578 25.3991C9.49418 25.6017 10.5498 25.4977 11.5091 25.1004C12.4684 24.703 13.2883 24.0301 13.8652 23.1667C14.4421 22.3034 14.75 21.2884 14.75 20.25V1Z"
        fill="black" fill-opacity="0.91" />
</svg>