<svg width="18" height="18" viewBox="0 0 18 18" fill="none" xmlns="http://www.w3.org/2000/svg">
<path d="M8.25 10.125L6 7.875L5.25 8.625L8.25 11.625L8.625 11.25L9 10.875L12.75 7.125L12 6.375L8.25 10.125Z" fill="white"/>
<path d="M14.2502 6.82501V3.75001H11.1752L9.0002 1.57501L6.8252 3.75001H3.7502V6.82501L1.5752 9.00001L3.7502 11.175V14.25H6.8252L9.0002 16.425L11.1752 14.25H14.2502V11.175L16.4252 9.00001L14.2502 6.82501ZM9.0002 10.875L8.6252 11.25L8.2502 11.625L5.2502 8.62501L6.0002 7.87501L8.2502 10.125L12.0002 6.37501L12.7502 7.12501L9.0002 10.875Z" fill="#F04E4E"/>
</svg>
