<svg width="28" height="20" viewBox="0 0 28 20" fill="none" xmlns="http://www.w3.org/2000/svg">
    <path
        d="M28 9.625C28 9.625 22.75 0 14 0C5.25 0 0 9.625 0 9.625C0 9.625 5.25 19.25 14 19.25C22.75 19.25 28 9.625 28 9.625ZM2.05275 9.625C2.89762 8.33803 3.87094 7.14014 4.95775 6.04975C7.21 3.794 10.29 1.75 14 1.75C17.71 1.75 20.7882 3.794 23.044 6.04975C24.1308 7.14014 25.1041 8.33803 25.949 9.625C25.8487 9.77667 25.7349 9.94467 25.6077 10.129C25.0215 10.969 24.1553 12.089 23.044 13.2003C20.7882 15.456 17.7083 17.5 14 17.5C10.2917 17.5 7.21175 15.456 4.956 13.2003C3.86919 12.1099 2.89762 10.912 2.05275 9.625Z"
        fill="#6A6A6A" />
    <path
        d="M14 5.25C12.8397 5.25 11.7269 5.71094 10.9064 6.53141C10.0859 7.35188 9.625 8.46468 9.625 9.625C9.625 10.7853 10.0859 11.8981 10.9064 12.7186C11.7269 13.5391 12.8397 14 14 14C15.1603 14 16.2731 13.5391 17.0936 12.7186C17.9141 11.8981 18.375 10.7853 18.375 9.625C18.375 8.46468 17.9141 7.35188 17.0936 6.53141C16.2731 5.71094 15.1603 5.25 14 5.25ZM7.875 9.625C7.875 8.00055 8.52031 6.44263 9.66897 5.29397C10.8176 4.14531 12.3755 3.5 14 3.5C15.6245 3.5 17.1824 4.14531 18.331 5.29397C19.4797 6.44263 20.125 8.00055 20.125 9.625C20.125 11.2495 19.4797 12.8074 18.331 13.956C17.1824 15.1047 15.6245 15.75 14 15.75C12.3755 15.75 10.8176 15.1047 9.66897 13.956C8.52031 12.8074 7.875 11.2495 7.875 9.625Z"
        fill="#6A6A6A" />
</svg>